<?xml version="1.0" encoding="utf-8"?>
<svg viewBox="207.5 201.429 85 97.143" width="85" height="97.143" xmlns="http://www.w3.org/2000/svg">
  <path d="M 207.5 219.643 C 207.5 209.588 215.658 201.429 225.714 201.429 L 243.928 201.429 L 243.928 237.611 C 243.928 240.154 246.869 241.576 248.861 239.982 L 259.107 231.786 L 269.352 239.982 C 271.345 241.576 274.286 240.154 274.286 237.611 L 274.286 201.429 L 280.357 201.429 L 286.428 201.429 C 289.787 201.429 292.5 204.142 292.5 207.501 L 292.5 268.215 C 292.5 271.573 289.787 274.286 286.428 274.286 L 286.428 286.429 C 289.787 286.429 292.5 289.142 292.5 292.501 C 292.5 295.859 289.787 298.572 286.428 298.572 L 280.357 298.572 L 225.714 298.572 C 215.658 298.572 207.5 290.413 207.5 280.357 L 207.5 219.643 Z M 219.643 280.357 C 219.643 283.716 222.356 286.429 225.714 286.429 L 274.286 286.429 L 274.286 274.286 L 225.714 274.286 C 222.356 274.286 219.643 276.999 219.643 280.357 Z"/>
</svg>