<?xml version="1.0" encoding="utf-8"?>
<svg viewBox="207.499 215.99 85.001 68.019" width="85.001" height="68.019" xmlns="http://www.w3.org/2000/svg">
  <path d="M 259.669 216.157 C 257.411 215.506 255.06 216.821 254.409 219.079 L 237.408 278.584 C 236.757 280.842 238.072 283.193 240.33 283.843 C 242.588 284.494 244.939 283.179 245.59 280.921 L 262.591 221.417 C 263.242 219.159 261.927 216.808 259.669 216.157 Z M 270.374 232.109 C 268.714 233.769 268.714 236.466 270.374 238.126 L 282.236 250 L 270.361 261.875 C 268.701 263.535 268.701 266.231 270.361 267.891 C 272.022 269.552 274.718 269.552 276.378 267.891 L 291.254 253.015 C 292.915 251.355 292.915 248.659 291.254 246.998 L 276.378 232.122 C 274.718 230.462 272.022 230.462 270.361 232.122 L 270.374 232.109 Z M 229.638 232.109 C 227.977 230.449 225.281 230.449 223.621 232.109 L 208.745 246.985 C 207.084 248.645 207.084 251.342 208.745 253.002 L 223.621 267.878 C 225.281 269.538 227.977 269.538 229.638 267.878 C 231.298 266.218 231.298 263.522 229.638 261.861 L 217.763 250 L 229.638 238.126 C 231.298 236.466 231.298 233.769 229.638 232.109 Z"/>
</svg>