<?xml version="1.0" encoding="UTF-8" standalone="no"?>
<!DOCTYPE svg PUBLIC "-//W3C//DTD SVG 1.1//EN"
 "http://www.w3.org/Graphics/SVG/1.1/DTD/svg11.dtd">
<!-- Generated by graphviz version 7.0.6 (0)
 -->
<!-- Title: Project Diagram Pages: 1 -->
<svg width="421pt" height="1227pt"
 viewBox="0.00 0.00 421.00 1227.00" xmlns="http://www.w3.org/2000/svg" xmlns:xlink="http://www.w3.org/1999/xlink">
<g id="graph0" class="graph" transform="scale(1 1) rotate(0) translate(144 1083)">
<title>Project Diagram</title>
<polygon fill="white" stroke="none" points="-144,144 -144,-1083 277,-1083 277,144 -144,144"/>
<text text-anchor="middle" x="66.5" y="-9" font-family="Sans-Serif" font-size="15.00" fill="#2d3436">Project Diagram</text>
<g id="clust1" class="cluster">
<title>cluster_GitHub</title>
<path fill="#e5f5fd" stroke="#aeb6be" d="M20,-33C20,-33 113,-33 113,-33 119,-33 125,-39 125,-45 125,-45 125,-376 125,-376 125,-382 119,-388 113,-388 113,-388 20,-388 20,-388 14,-388 8,-382 8,-376 8,-376 8,-45 8,-45 8,-39 14,-33 20,-33"/>
<text text-anchor="middle" x="35" y="-374.4" font-family="Sans-Serif" font-size="12.00" fill="#2d3436">GitHub</text>
</g>
<g id="clust2" class="cluster">
<title>cluster_Kaggle</title>
<path fill="#e5f5fd" stroke="#aeb6be" d="M20,-396C20,-396 113,-396 113,-396 119,-396 125,-402 125,-408 125,-408 125,-919 125,-919 125,-925 119,-931 113,-931 113,-931 20,-931 20,-931 14,-931 8,-925 8,-919 8,-919 8,-408 8,-408 8,-402 14,-396 20,-396"/>
<text text-anchor="middle" x="35.5" y="-917.4" font-family="Sans-Serif" font-size="12.00" fill="#2d3436">Kaggle</text>
</g>
<!-- a069dc9790ef47898905afa491d45432 -->
<g id="node1" class="node">
<title>a069dc9790ef47898905afa491d45432</title>
<image xlink:href="/opt/homebrew/Caskroom/miniconda/base/envs/basketball_db/lib/python3.11/site-packages/resources/onprem/vcs/github.png" width="101px" height="101px" preserveAspectRatio="xMinYMin meet" x="16" y="-340.5"/>
<text text-anchor="middle" x="66.5" y="-225.1" font-family="Sans-Serif" font-size="13.00" fill="#2d3436">Project Repo</text>
</g>
<!-- 9ad9d7c551864ac5b837565460415e9b -->
<g id="node2" class="node">
<title>9ad9d7c551864ac5b837565460415e9b</title>
<text text-anchor="middle" x="66.5" y="-45.1" font-family="Sans-Serif" font-size="13.00" fill="#2d3436">Python Module</text>
</g>
<!-- d199882bc4bc4763baaa55e273f26ae7 -->
<g id="node3" class="node">
<title>d199882bc4bc4763baaa55e273f26ae7</title>
<text text-anchor="middle" x="66.5" y="-768.1" font-family="Sans-Serif" font-size="13.00" fill="#2d3436">Kaggle</text>
</g>
<!-- 7fde525d23974aa1aae4ace4a235e426 -->
<g id="node4" class="node">
<title>7fde525d23974aa1aae4ace4a235e426</title>
<text text-anchor="middle" x="66.5" y="-588.1" font-family="Sans-Serif" font-size="13.00" fill="#2d3436">Daily Updater Notebook</text>
</g>
<!-- b19e9a7cbc524eb6bd2e9d7d8c32b8a1 -->
<g id="node5" class="node">
<title>b19e9a7cbc524eb6bd2e9d7d8c32b8a1</title>
<text text-anchor="middle" x="66.5" y="-408.1" font-family="Sans-Serif" font-size="13.00" fill="#2d3436">Monthly Updater Notebook</text>
</g>
</g>
</svg>
