<?xml version="1.0" encoding="utf-8"?>
<svg viewBox="-314 -34 1128 568" width="1128" height="568" xmlns="http://www.w3.org/2000/svg" xmlns:xlink="http://www.w3.org/1999/xlink">
  <defs>
    <linearGradient gradientUnits="userSpaceOnUse" x1="250" y1="-34" x2="250" y2="534" id="gradient-0" gradientTransform="matrix(0.109941, -0.993939, 1.99137, 0.220268, -275.259122, 665.589828)" spreadMethod="pad">
      <stop offset="0" style="stop-color: rgb(193, 181, 114);"/>
      <stop offset="1" style="stop-color: rgb(193, 114, 137);"/>
    </linearGradient>
    <linearGradient x1="-15.614694" y1="-9.1082983" x2="-6.7410073" y2="-9.1082983" id="linearGradient2995" gradientUnits="userSpaceOnUse" gradientTransform="matrix(0, 8.29178, -8.29178, 0, 88.634857, 541.590652)" spreadMethod="pad" xlink:href="#linearGradient3027"/>
    <linearGradient x1="0" y1="0" x2="1" y2="0" id="linearGradient3027" gradientUnits="userSpaceOnUse" gradientTransform="matrix(-4.02e-6,-91.8907,-91.8907,4.02e-6,85.8809,161.434)" spreadMethod="pad">
      <stop id="stop3029" style="stop-color:#97d9f6;stop-opacity:1" offset="0"/>
      <stop id="stop3031" style="stop-color:#0f80cc;stop-opacity:1" offset="0.9202"/>
      <stop id="stop3033" style="stop-color:#0f80cc;stop-opacity:1" offset="1"/>
    </linearGradient>
  </defs>
  <rect x="-314" y="-34" width="1128" height="568" style="stroke: rgba(0, 0, 0, 0); fill: url(#gradient-0);"/>
  <path d="M 379.327 160.768 L 525 160.768 L 525 460.039 L 379.327 460.039 L 379.327 160.768 Z" fill="#fff"/>
  <path d="M 483.163 425.686 C 483.424 421.453 483.334 420.058 482.76 419.378 C 482.333 418.857 482.027 417.222 482.012 415.372 C 481.999 412.58 481.616 411.529 478.334 405.14 C 474.818 398.326 474.69 397.952 475.317 396.221 C 475.9 394.617 475.819 394.072 474.543 391.146 C 473.274 388.222 472.706 387.579 469.303 385.287 C 462.714 380.832 457.414 376.302 448.594 367.564 C 438.749 357.794 430.569 347.055 422.986 333.935 C 420.353 329.383 420.15 329.196 417.829 329.174 C 416.085 329.165 413.979 327.643 413.986 326.389 C 413.986 326.023 411.852 321.313 409.24 315.925 C 402.456 301.947 401.875 298.97 403.956 288.782 C 405.179 282.745 405.412 282.199 407.98 279.364 C 410.71 276.35 410.285 275.498 405.815 275.058 C 399.851 274.469 399.912 274.506 398.68 270.678 C 398.069 268.797 397.576 266.67 397.576 265.937 C 397.576 263.535 400.3 255.938 404.046 247.884 C 406.083 243.519 408.688 237.555 409.845 234.646 C 413.942 224.287 419.613 215.995 424.181 213.658 C 426.009 212.734 429.555 212.033 440.137 210.51 C 446.018 209.674 446.429 209.241 447.272 203.142 C 447.765 199.592 447.712 199.039 446.788 197.532 C 446.123 196.45 445.756 194.919 445.756 193.157 C 445.756 190.688 445.899 190.389 447.347 189.634 C 448.75 188.919 448.935 188.545 448.935 186.471 C 448.935 181.523 449.929 178.769 452.712 176.067 C 453.368 175.425 454.01 174.762 454.637 174.089 L 418.285 174.089 C 405.925 174.089 395.911 184.097 395.911 196.45 L 395.911 424.484 C 395.911 436.835 405.925 446.852 418.285 446.852 L 484.804 446.852 C 484.579 446.359 484.111 445.552 483.565 444.762 C 482.056 442.56 482.065 443.336 483.163 425.686 Z" fill="#0e499d"/>
  <path d="M 486.214 174.089 L 466.96 174.089 C 467.153 174.314 467.422 174.553 467.752 174.769 C 470.132 176.335 473.744 180.097 474.319 181.604 C 475.192 183.888 474.99 186.92 473.766 190.195 C 473.065 192.083 472.772 193.755 472.974 194.747 C 473.348 196.622 471.496 200.59 469.327 202.614 C 468.541 203.338 467.43 204.845 466.854 205.972 C 466.28 207.098 464.848 209.047 463.684 210.314 C 462.511 211.577 461.638 213.031 461.728 213.518 C 461.831 214.017 463.222 215.121 464.817 215.988 C 466.429 216.846 468.825 218.54 470.161 219.741 C 471.483 220.951 474.162 223.063 476.116 224.443 C 483.125 229.399 486.491 237.869 486.52 250.66 C 486.542 256.325 489.305 269.618 491.289 273.536 C 494 278.908 494.977 281.872 495.826 287.231 C 496.924 294.119 496.954 294.194 499.141 295.111 C 501.238 295.985 506.656 300.387 506.656 301.216 C 506.656 301.5 507.193 302.486 507.849 303.403 L 508.581 304.433 L 508.581 196.45 C 508.581 184.097 498.565 174.089 486.214 174.089 Z M 508.245 323.83 C 508.245 324.09 507.059 325.605 505.627 327.181 C 495.579 338.181 478.386 335.732 472.072 322.404 C 470.55 319.179 470.385 318.367 470.385 313.813 C 470.385 309.455 470.579 308.373 471.804 305.755 C 473.76 301.566 477.504 297.731 481.603 295.716 C 483.462 294.805 485.094 293.879 485.237 293.664 C 485.371 293.446 483.677 289.655 481.497 285.231 C 476.459 275.043 475.856 273.221 473.573 261.064 C 472.534 255.557 471.58 250.766 471.445 250.401 C 471.027 249.228 469.549 249.683 465.893 252.117 L 462.302 254.497 L 459.064 262.714 C 457.28 267.228 455.817 271.602 455.817 272.423 C 455.817 273.34 456.34 274.394 457.198 275.199 C 459.317 277.177 459.884 278.633 463.481 291.178 C 466.132 300.424 466.72 303.126 466.295 304.061 C 465.893 304.947 466.154 306.894 467.378 312.029 C 469.162 319.606 469.833 323.612 470.669 331.814 C 471.52 340.136 472.407 342.779 477.236 351.136 C 480.439 356.705 481.422 360.046 483.677 373.07 C 484.714 379.041 485.752 384.301 485.998 384.75 C 486.236 385.206 487.29 386.84 488.335 388.385 C 491.193 392.639 491.626 394.593 490.596 398.685 C 490.126 400.557 489.595 403.371 489.415 404.937 C 489.05 408.088 490.192 415.715 491.483 418.804 C 491.916 419.849 492.154 421.162 492.013 421.723 C 491.864 422.289 492.475 425.081 493.373 427.938 C 496.162 436.879 496.035 440.672 492.818 444.731 C 492.244 445.461 491.932 445.879 491.745 446.157 C 501.425 443.686 508.581 434.917 508.581 424.484 L 508.581 323.381 C 508.388 323.456 508.245 323.628 508.245 323.83 Z" fill="#d30529"/>
  <path d="M 403.881 396.511 L 412.919 396.511 L 418.128 419.574 L 418.219 419.574 L 418.219 396.511 L 425.787 396.511 L 425.787 433.925 L 416.912 433.925 L 411.524 410.811 L 411.44 410.811 L 411.44 433.925 L 403.881 433.925 L 403.881 396.511 Z M 429.696 396.511 L 441.915 396.511 C 447.69 396.511 450.385 400.236 450.385 405.842 C 450.385 409.819 448.95 413.385 445.518 414.215 L 445.518 414.318 C 449.608 414.798 451.249 418.991 451.249 422.863 C 451.249 429.364 448.645 433.925 441.915 433.925 L 429.696 433.925 L 429.696 396.511 Z M 437.779 411.177 L 439.741 411.177 C 441.382 411.177 442.302 409.401 442.302 407.417 C 442.302 405.311 441.382 403.536 439.741 403.536 L 437.779 403.536 L 437.779 411.177 Z M 437.779 426.902 L 440.04 426.902 C 441.51 426.902 442.907 425.336 442.907 422.289 C 442.907 419.418 441.51 417.781 440.04 417.781 L 437.779 417.781 L 437.779 426.902 Z M 459.295 396.511 L 469.468 396.511 L 477.027 433.925 L 468.423 433.925 L 467.609 427.38 L 461.176 427.38 L 460.34 433.925 L 451.736 433.925 L 459.295 396.511 Z M 464.43 404.161 L 464.339 404.161 L 462.124 420.036 L 466.645 420.036 L 464.43 404.161 Z" fill="#fff"/>
  <path d="M 217.4 460.039 C 213.916 460.039 211.086 461.075 208.915 463.127 C 206.752 465.195 205.648 467.897 205.648 471.21 C 205.648 472.926 205.916 474.486 206.46 475.92 C 206.997 477.359 207.841 478.688 208.961 479.889 C 210.094 481.09 212.34 482.734 215.706 484.808 C 219.834 487.332 222.529 489.376 223.835 490.964 C 225.125 492.563 225.767 494.233 225.767 495.98 C 225.767 498.31 224.999 500.167 223.417 501.57 C 221.842 502.974 219.73 503.667 217.103 503.667 C 214.342 503.667 211.931 502.697 209.863 500.756 C 207.797 498.825 206.752 496.255 206.728 493.047 L 205.446 493.047 L 205.446 504.705 L 206.728 504.705 C 207.118 503.607 207.661 503.033 208.372 503.033 C 208.721 503.033 209.52 503.271 210.767 503.713 C 213.803 504.795 216.296 505.317 218.252 505.317 C 221.64 505.317 224.513 504.131 226.918 501.726 C 229.32 499.324 230.528 496.429 230.528 493.047 C 230.528 490.421 229.731 488.091 228.163 486.054 C 226.596 484.016 223.536 481.645 218.976 478.919 C 215.057 476.561 212.505 474.644 211.333 473.151 C 210.147 471.65 209.549 470.002 209.549 468.187 C 209.549 466.218 210.266 464.643 211.691 463.471 C 213.117 462.291 214.976 461.711 217.304 461.711 C 219.93 461.711 222.117 462.494 223.849 464.06 C 225.58 465.629 226.581 467.8 226.871 470.599 L 228.163 470.599 L 228.163 460.494 L 226.968 460.494 C 226.812 461.009 226.684 461.337 226.559 461.486 C 226.438 461.636 226.2 461.711 225.864 461.711 C 225.446 461.711 224.7 461.539 223.648 461.187 C 221.393 460.432 219.312 460.039 217.4 460.039 Z M 259.427 460.039 C 255.179 460.039 251.335 461.037 247.859 463.039 C 244.366 465.037 241.611 467.813 239.574 471.344 C 237.537 474.875 236.529 478.629 236.529 482.622 C 236.529 487.987 238.289 492.779 241.827 496.972 C 245.373 501.159 249.626 503.772 254.552 504.771 C 255.68 505.361 257.291 506.877 259.403 509.332 C 261.785 512.099 263.798 514.101 265.448 515.287 C 267.098 516.473 268.889 517.346 270.777 517.923 C 272.664 518.497 274.702 518.787 276.913 518.787 C 279.577 518.787 281.979 518.317 284.085 517.362 L 283.605 516.191 C 282.391 516.631 281.084 516.84 279.711 516.84 C 277.845 516.84 275.956 516.229 274.068 514.997 C 272.18 513.756 269.822 511.391 267.008 507.906 C 265.679 506.243 264.769 505.189 264.254 504.771 C 269.65 503.72 274.083 501.106 277.54 496.919 C 280.994 492.742 282.725 487.972 282.725 482.622 C 282.725 476.27 280.463 470.933 275.986 466.584 C 271.494 462.232 265.979 460.039 259.427 460.039 Z M 285.666 460.039 L 285.732 461.418 C 288.555 461.418 290.137 462.247 290.495 463.919 C 290.621 464.524 290.682 465.629 290.696 467.211 L 290.667 497.652 C 290.652 499.92 290.322 501.368 289.703 501.995 C 289.076 502.622 288.025 503.018 286.494 503.174 L 286.428 504.547 L 314.579 504.547 L 315.309 497.652 L 314.018 497.652 C 313.653 499.533 312.81 500.875 311.466 501.638 C 310.13 502.406 307.75 502.787 304.316 502.787 L 301.66 502.787 C 298.569 502.787 296.779 501.676 296.308 499.427 C 296.211 498.987 296.182 498.51 296.174 497.98 L 296.292 467.211 C 296.286 464.949 296.57 463.427 297.166 462.681 C 297.764 461.942 298.853 461.524 300.42 461.418 L 300.347 460.039 L 285.666 460.039 Z M 259.882 461.711 C 264.665 461.711 268.568 463.589 271.582 467.395 C 274.605 471.195 276.099 476.404 276.099 483.009 C 276.099 489.257 274.576 494.264 271.538 498.026 C 268.502 501.795 264.456 503.667 259.427 503.667 C 254.598 503.667 250.68 501.733 247.672 497.854 C 244.672 493.965 243.187 488.92 243.187 482.712 C 243.187 476.338 244.687 471.232 247.716 467.42 C 250.746 463.605 254.807 461.711 259.882 461.711 Z M 324.615 468.247 C 323.929 468.247 323.407 468.487 323.018 468.949 C 322.622 469.419 322.497 469.978 322.631 470.667 C 322.774 471.329 323.146 471.912 323.742 472.405 C 324.331 472.889 324.974 473.151 325.654 473.151 C 326.325 473.151 326.833 472.889 327.191 472.405 C 327.557 471.912 327.669 471.329 327.535 470.667 C 327.392 469.978 327.026 469.419 326.474 468.949 C 325.907 468.487 325.288 468.247 324.615 468.247 Z M 343.192 472.92 C 342.019 477.412 339.498 479.836 335.609 480.232 L 335.655 481.517 L 340.185 481.517 L 340.094 496.719 C 340.101 499.324 340.185 501.049 340.369 501.935 C 340.812 504.041 342.191 505.114 344.499 505.114 C 347.827 505.114 351.325 503.086 354.984 499.018 L 353.88 498.07 C 351.244 500.75 348.901 502.094 346.864 502.094 C 345.61 502.094 344.833 501.368 344.543 499.951 C 344.461 499.599 344.431 499.196 344.431 498.728 L 344.468 481.517 L 351.4 481.517 L 351.334 479.465 L 344.499 479.465 L 344.499 472.92 L 343.192 472.92 Z M 369.962 478.651 C 366.087 478.651 362.939 480.532 360.491 484.269 C 358.051 488.009 357.296 492.159 358.251 496.719 C 358.827 499.39 359.945 501.467 361.663 502.93 C 363.379 504.384 365.559 505.114 368.162 505.114 C 370.582 505.114 373.961 504.496 375.38 503.264 C 376.797 502.032 378.11 500.026 379.327 497.287 L 378.357 496.27 C 376.425 499.823 372.522 501.623 369.581 501.623 C 365.537 501.623 363.058 499.399 362.134 494.988 C 362.013 494.42 361.925 493.815 361.863 493.182 C 366.677 492.42 370.32 491.07 372.782 489.12 C 375.239 487.167 377.717 485.099 377.252 482.921 C 376.977 481.614 376.306 480.6 375.268 479.83 C 374.216 479.053 371.484 478.651 369.962 478.651 Z M 327.625 478.807 L 319.28 480.725 L 319.28 482.219 L 322.16 481.854 C 323.564 481.854 324.384 482.487 324.646 483.757 C 324.727 484.175 324.787 484.764 324.802 485.51 L 324.712 499.159 C 324.69 501.049 324.481 502.144 324.056 502.472 C 323.632 502.802 322.512 502.974 320.69 502.974 L 320.646 504.256 L 333.893 504.256 L 333.871 502.974 C 332.027 502.974 330.832 502.824 330.302 502.54 C 329.781 502.257 329.422 501.748 329.266 500.959 C 329.154 500.4 329.101 499.427 329.088 498.07 L 329.132 478.807 L 327.625 478.807 Z M 367.843 481.337 C 368.648 481.337 369.431 481.651 370.217 482.263 C 370.985 482.868 371.462 483.548 371.612 484.294 C 372.364 487.919 369.148 490.427 361.91 491.822 C 361.701 489.182 362.163 486.777 363.326 484.606 C 364.492 482.443 366.006 481.337 367.843 481.337 Z" id="SQLite" style="fill:#003b57;fill-opacity:1;fill-rule:nonzero;stroke:none"/>
  <path d="M 198.707 407.938 L 126.873 407.938 C 122.059 407.938 118.119 411.872 118.119 416.685 L 118.119 495.905 C 118.119 500.719 122.059 504.652 126.873 504.652 L 174.181 504.652 C 173.645 481.115 181.683 435.432 198.707 407.938 Z" id="solid-background" style="fill:#0f80cc;fill-opacity:1;fill-rule:nonzero;stroke:none"/>
  <path d="M 196.093 410.49 L 126.873 410.49 C 123.456 410.49 120.673 413.267 120.673 416.685 L 120.673 490.128 C 136.344 484.107 159.884 478.912 176.146 479.15 C 179.422 462.06 189.027 428.55 196.093 410.49 Z" id="gradient-background" style="fill:url(#linearGradient2995);fill-opacity:1;fill-rule:nonzero;stroke:none"/>
  <path d="M 215.46 405.34 C 210.536 400.953 204.579 402.722 198.707 407.938 C 197.825 408.706 196.96 409.573 196.093 410.49 C 186.035 421.156 176.705 440.918 173.803 456.015 C 174.936 458.298 175.816 461.224 176.399 463.455 C 176.549 464.032 176.674 464.568 176.788 465.024 C 177.041 466.106 177.182 466.815 177.182 466.815 C 177.182 466.815 177.085 466.465 176.711 465.398 C 176.652 465.195 176.571 464.964 176.474 464.703 C 176.436 464.59 176.384 464.463 176.324 464.322 C 175.669 462.791 173.847 459.574 173.055 458.173 C 172.369 460.186 171.764 462.076 171.264 463.776 C 173.57 467.994 174.973 475.225 174.973 475.225 C 174.973 475.225 174.846 474.763 174.265 473.12 C 173.757 471.681 171.189 467.186 170.584 466.144 C 169.548 469.965 169.137 472.561 169.502 473.188 C 170.235 474.405 170.914 476.517 171.526 478.844 C 172.89 484.091 173.84 490.48 173.84 490.48 C 173.84 490.48 173.862 490.905 173.913 491.547 C 173.726 495.958 173.84 500.525 174.181 504.652 C 174.63 510.124 175.482 514.816 176.571 517.331 L 177.301 516.928 C 175.713 511.981 175.064 505.488 175.354 498.011 C 175.772 486.568 178.405 472.779 183.272 458.395 C 191.498 436.694 202.885 419.281 213.326 410.968 C 203.818 419.55 190.945 447.351 187.093 457.649 C 182.772 469.18 179.721 479.995 177.877 490.361 C 181.056 480.644 191.341 476.464 191.341 476.464 C 191.341 476.464 196.377 470.249 202.267 461.367 C 198.736 462.173 192.945 463.545 191.005 464.366 C 188.138 465.569 187.37 465.979 187.37 465.979 C 187.37 465.979 196.639 460.329 204.603 457.77 C 215.544 440.538 227.461 416.052 215.46 405.34" id="feather" style="fill:#003b57;fill-opacity:1;fill-rule:nonzero;stroke:none"/>
  <g id="SvgjsG1044" transform="matrix(1.040035, 0, 0, 1.040035, 98.948959, 103.326065)">
    <svg xmlns="http://www.w3.org/2000/svg" preserveAspectRatio="xMinYMid" viewBox="0 0 25 25" width="288" height="288">
      <path fill="#72a0c1" d="M23 3.4C23 1.7 18.4.2 12.7.2S2.2 1.8 2.2 3.5c0 .2.1.5.2.6l-.5-.5v18h.4C8.4 11.3 22.7 4.5 22.7 4.5c-.2.1-.4.1-.5.2.4-.4.8-.9.8-1.3z" class="colorA0CEC7 svgShape"/>
      <path fill="#222222" d="M23.4 3.6c.1-2.1-5-3.6-10.9-3.6S1.6 1.4 1.6 3.6v18s0-2 0 0S6.8 25 12.5 25s10.9-1.3 10.9-3.4v-18zM12.5.6c6.1 0 10.2 1.5 10.2 2.9 0 1.5-4.1 2.9-10.2 2.9S2.3 5 2.3 3.6s4.1-3 10.2-3zm10.2 21c-.3 1.4-4.4 2.7-10.2 2.7s-9.9-1.4-10.2-2.7v-5.4c1.2 1.5 5.2 2.5 10.2 2.5 4.9 0 9-1 10.2-2.4v5.3zm0-6.1c-.4 1.4-4.4 2.7-10.2 2.7s-9.9-1.4-10.2-2.7v.1-5C3.5 12.1 7.5 13 12.5 13c4.9 0 9-1 10.2-2.4v4.9zm0-5.7c-.4 1.4-4.4 2.7-10.2 2.7S2.6 11.1 2.3 9.8v.2-5.4c1.2 1.3 5.3 2.5 10.2 2.5s9-1 10.2-2.4v5.1z" class="color222 svgShape"/>
      <circle cx="20.1" cy="8.7" r=".9" fill="none" stroke="#222" stroke-miterlimit="10" stroke-width=".497" class="colorStroke222 svgStroke"/>
      <circle cx="20.1" cy="14.7" r=".9" fill="none" stroke="#222" stroke-miterlimit="10" stroke-width=".497" class="colorStroke222 svgStroke"/>
      <circle cx="20.1" cy="20.7" r=".9" fill="none" stroke="#222" stroke-miterlimit="10" stroke-width=".497" class="colorStroke222 svgStroke"/>
    </svg>
  </g>
  <path d="M -25 160.768 L 120.673 160.768 L 120.673 460.039 L -25 460.039 L -25 160.768 Z" fill="#fff"/>
  <path d="M 122.686 74.704 C 140.121 104.906 130.478 143.483 100.888 161.917 L 99.014 163.014 L 97.126 164.088 C 78.11 174.223 55.318 174.223 36.31 164.088 C -7.618 140.662 -9.717 78.479 32.532 52.165 C 33.137 51.785 33.742 51.419 34.36 51.061 L 36.257 49.985 C 55.265 39.858 78.072 39.858 97.082 49.985 C 107.79 55.643 116.665 64.21 122.686 74.704 Z" fill="#fab88b"/>
  <path d="M 123.269 132.08 L 121.395 133.178 L 119.516 134.245 C 100.492 144.372 77.7 144.372 58.692 134.245 C 36.862 122.677 23.547 99.668 24.421 74.988 C 24.645 68.188 25.95 61.471 28.295 55.091 C -11.567 84.899 -4.208 146.686 41.532 166.299 C 59.46 173.977 79.878 173.156 97.126 164.088 L 99.014 163.014 L 100.888 161.917 C 113.12 154.313 122.464 142.812 127.39 129.273 C 126.045 130.237 124.688 131.176 123.269 132.08 Z" fill="#f9a66e"/>
  <ellipse cx="40.81" cy="14.54" rx="7.456" ry="12.441" transform="matrix(0.591028, -0.806651, 0.806651, 0.591028, 52.746567, 87.930031)" fill="#fcd4b9"/>
  <ellipse cx="48.87" cy="20.45" rx="1.984" ry="3.313" transform="matrix(0.591028, -0.806651, 0.806651, 0.591028, -2.190993, 82.606056)" fill="#fcd4b9"/>
  <path d="M 133.836 106.593 C 133.754 82.912 121.12 61.053 100.642 49.164 L 98.149 47.873 C 88.476 42.71 77.67 39.964 66.692 39.896 L 66.692 44.866 C 75.923 44.881 85.035 46.949 93.371 50.911 C 85.924 60.853 71.961 72.128 55.161 82.092 L 37.751 52 C 45.107 48.119 53.168 45.754 61.475 45.068 L 61.071 40.096 C 51.974 40.851 43.123 43.471 35.086 47.792 C 34.444 48.135 33.81 48.493 33.131 48.896 C 31.846 49.62 30.629 50.388 29.421 51.18 C 11.344 63.106 0.219 83.084 -0.446 104.728 L -0.446 107.46 C -0.38 131.154 12.264 153.022 32.75 164.909 L 35.234 166.2 C 54.966 176.716 78.646 176.716 98.394 166.2 C 99.043 165.872 99.663 165.5 100.506 165.008 L 102.314 163.954 C 121.307 152.149 133.151 131.616 133.888 109.257 L 133.836 106.593 Z M 128.373 114.317 C 128.373 114.96 128.21 115.624 128.113 116.264 L 127.814 118.027 L 127.442 119.952 C 127.321 120.513 127.203 121.087 127.038 121.654 C 126.897 122.235 126.716 122.93 126.545 123.579 C 126.367 124.222 126.246 124.69 126.067 125.243 C 125.896 125.788 125.687 126.505 125.456 127.132 C 125.225 127.751 125.075 128.199 124.882 128.745 C 124.688 129.295 124.404 129.997 124.164 130.617 C 123.911 131.235 123.731 131.64 123.515 132.155 C 123.291 132.67 122.941 133.363 122.673 133.999 L 121.927 135.49 C 121.628 136.08 121.307 136.685 120.955 137.281 C 120.695 137.743 120.427 138.223 120.134 138.715 C 119.837 139.215 119.434 139.857 119.06 140.431 C 118.68 141.014 118.493 141.371 118.172 141.826 C 117.85 142.275 117.395 142.946 117.008 143.498 L 116.022 144.812 L 114.709 146.453 L 113.686 147.7 L 112.276 149.26 C 111.902 149.641 111.552 150.043 111.18 150.424 L 109.642 151.924 L 108.514 153.022 L 106.806 154.485 C 106.432 154.804 106.052 155.125 105.649 155.424 C 105.269 155.739 104.336 156.469 103.663 156.969 L 102.67 157.723 C 101.753 158.372 100.805 158.984 99.865 159.582 L 82.565 129.416 C 99.597 119.839 116.396 113.459 128.644 112.003 C 128.619 112.183 128.619 112.348 128.644 112.505 C 128.545 113.11 128.463 113.728 128.41 114.317 L 128.373 114.317 Z M 128.866 107.033 C 115.903 108.505 98.05 115.169 80.087 125.243 L 70.146 108.003 L 121.769 78.174 C 126.448 87.062 128.881 96.981 128.866 107.033 Z M 97.797 53.278 C 106.514 58.27 113.866 65.337 119.21 73.844 L 67.609 103.676 L 57.669 86.443 C 75.349 75.897 90.067 63.77 97.797 53.278 Z M 4.792 101.489 C 4.792 100.847 4.792 100.226 4.995 99.593 C 5.195 98.972 5.144 98.249 5.241 97.608 C 5.345 96.959 5.463 96.368 5.562 95.749 C 5.666 95.122 5.815 94.429 5.934 93.809 L 6.398 91.965 C 6.539 91.316 6.717 90.705 6.889 90.056 L 7.397 88.256 C 7.606 87.638 7.8 87.018 8.031 86.391 C 8.249 85.772 8.449 85.218 8.682 84.659 C 8.904 84.085 9.144 83.436 9.404 82.846 L 10.136 81.13 C 10.405 80.532 10.695 79.958 10.988 79.384 C 11.285 78.816 11.54 78.264 11.83 77.712 C 12.129 77.173 12.451 76.57 12.77 76.033 L 13.727 74.412 C 14.076 73.853 14.428 73.316 14.785 72.801 C 15.165 72.271 15.458 71.747 15.808 71.248 C 16.158 70.755 16.584 70.188 16.98 69.666 L 18.091 68.21 C 18.525 67.695 18.943 67.18 19.398 66.681 C 19.838 66.173 20.159 65.755 20.591 65.315 C 21.009 64.853 21.501 64.314 21.981 63.838 L 23.248 62.547 C 23.748 62.054 24.271 61.605 24.779 61.135 L 26.084 59.942 L 27.815 58.539 C 28.271 58.195 28.667 57.843 29.122 57.524 C 29.562 57.194 30.466 56.523 31.153 56.061 C 31.846 55.584 31.899 55.509 32.301 55.263 C 32.697 55.008 33.1 54.77 33.487 54.508 L 50.9 84.547 C 33.802 94.13 16.95 100.526 4.74 102.063 C 4.762 101.87 4.762 101.689 4.792 101.489 Z M 4.524 107.033 C 17.473 105.579 35.331 98.913 53.287 88.839 L 63.229 106.07 L 11.606 135.908 C 6.935 126.998 4.495 117.1 4.524 107.033 Z M 14.114 140.192 L 65.713 110.34 L 75.67 127.579 C 65.781 133.31 56.475 139.976 47.831 147.469 L 51.153 151.178 C 59.564 143.923 68.617 137.475 78.237 131.909 L 95.633 162 C 94.634 162.515 93.617 163.014 92.612 163.485 L 91.305 164.037 L 89.147 164.955 L 87.625 165.47 L 85.609 166.2 L 84.096 166.724 L 82.162 167.26 L 80.468 167.641 L 78.536 168.066 L 76.842 168.336 L 74.878 168.657 L 73.184 168.829 L 71.199 169.007 L 69.505 169.007 L 67.521 169.007 L 65.849 169.007 C 65.176 169.007 64.483 169.007 63.81 169.007 L 62.168 169.007 L 60.131 168.805 L 58.519 168.605 C 57.819 168.605 57.117 168.418 56.444 168.312 L 54.862 168.015 C 54.16 167.887 53.467 167.747 52.796 167.566 L 51.243 167.194 L 49.034 166.724 L 47.541 166.268 L 45.488 165.551 L 44.012 165.008 L 41.95 164.125 L 40.556 163.514 L 40.034 163.261 C 41.966 160.759 44.071 158.379 46.333 156.148 L 42.802 152.648 C 40.19 155.222 37.788 157.992 35.586 160.924 C 26.869 155.88 19.502 148.774 14.167 140.236 L 14.114 140.192 Z" fill="#202c35"/>
  <path d="M 78.833 425.686 C 79.095 421.453 79.005 420.058 78.431 419.378 C 78.006 418.857 77.7 417.222 77.685 415.372 C 77.67 412.58 77.289 411.529 74.004 405.14 C 70.491 398.326 70.363 397.952 70.99 396.221 C 71.573 394.617 71.49 394.072 70.214 391.146 C 68.944 388.222 68.379 387.579 64.976 385.287 C 58.384 380.832 53.087 376.302 44.265 367.564 C 34.422 357.794 26.242 347.055 18.659 333.935 C 16.026 329.383 15.823 329.196 13.502 329.174 C 11.755 329.165 9.65 327.643 9.659 326.389 C 9.659 326.023 7.525 321.313 4.913 315.925 C -1.871 301.947 -2.454 298.97 -0.371 288.782 C 0.852 282.745 1.083 282.199 3.651 279.364 C 6.383 276.35 5.956 275.498 1.486 275.058 C -4.476 274.469 -4.417 274.506 -5.649 270.678 C -6.26 268.797 -6.753 266.67 -6.753 265.937 C -6.753 263.535 -4.03 255.938 -0.283 247.884 C 1.756 243.519 4.359 237.555 5.516 234.646 C 9.613 224.287 15.286 215.995 19.854 213.658 C 21.682 212.734 25.226 212.033 35.808 210.51 C 41.691 209.674 42.1 209.241 42.943 203.142 C 43.435 199.592 43.385 199.039 42.459 197.532 C 41.794 196.45 41.429 194.919 41.429 193.157 C 41.429 190.688 41.57 190.389 43.02 189.634 C 44.421 188.919 44.608 188.545 44.608 186.471 C 44.608 181.523 45.6 178.769 48.385 176.067 C 49.041 175.425 49.683 174.762 50.31 174.089 L 13.958 174.089 C 1.598 174.089 -8.416 184.097 -8.416 196.45 L -8.416 424.484 C -8.416 436.835 1.598 446.852 13.958 446.852 L 80.475 446.852 C 80.252 446.359 79.782 445.552 79.236 444.762 C 77.729 442.56 77.736 443.336 78.833 425.686 Z" fill="#0e499d"/>
  <path d="M 81.887 174.089 L 62.633 174.089 C 62.826 174.314 63.095 174.553 63.422 174.769 C 65.803 176.335 69.415 180.097 69.989 181.604 C 70.863 183.888 70.663 186.92 69.437 190.195 C 68.735 192.083 68.445 193.755 68.647 194.747 C 69.019 196.622 67.169 200.59 64.998 202.614 C 64.214 203.338 63.101 204.845 62.527 205.972 C 61.953 207.098 60.518 209.047 59.355 210.314 C 58.184 211.577 57.311 213.031 57.401 213.518 C 57.504 214.017 58.893 215.121 60.49 215.988 C 62.102 216.846 64.498 218.54 65.834 219.741 C 67.154 220.951 69.833 223.063 71.789 224.443 C 78.796 229.399 82.162 237.869 82.193 250.66 C 82.215 256.325 84.976 269.618 86.962 273.536 C 89.671 278.908 90.647 281.872 91.499 287.231 C 92.597 294.119 92.625 294.194 94.812 295.111 C 96.909 295.985 102.327 300.387 102.327 301.216 C 102.327 301.5 102.864 302.486 103.522 303.403 L 104.254 304.433 L 104.254 196.45 C 104.254 184.097 94.238 174.089 81.887 174.089 Z M 103.918 323.83 C 103.918 324.09 102.73 325.605 101.298 327.181 C 91.252 338.181 74.057 335.732 67.743 322.404 C 66.221 319.179 66.058 318.367 66.058 313.813 C 66.058 309.455 66.252 308.373 67.475 305.755 C 69.431 301.566 73.177 297.731 77.274 295.716 C 79.133 294.805 80.767 293.879 80.908 293.664 C 81.044 293.446 79.348 289.655 77.17 285.231 C 72.132 275.043 71.527 273.221 69.244 261.064 C 68.207 255.557 67.25 250.766 67.116 250.401 C 66.698 249.228 65.222 249.683 61.563 252.117 L 57.975 254.497 L 54.735 262.714 C 52.953 267.228 51.49 271.602 51.49 272.423 C 51.49 273.34 52.011 274.394 52.869 275.199 C 54.99 277.177 55.557 278.633 59.154 291.178 C 61.803 300.424 62.393 303.126 61.968 304.061 C 61.563 304.947 61.825 306.894 63.048 312.029 C 64.833 319.606 65.504 323.612 66.34 331.814 C 67.191 340.136 68.08 342.779 72.909 351.136 C 76.11 356.705 77.095 360.046 79.348 373.07 C 80.387 379.041 81.423 384.301 81.669 384.75 C 81.909 385.206 82.961 386.84 84.006 388.385 C 86.863 392.639 87.297 394.593 86.267 398.685 C 85.796 400.557 85.268 403.371 85.088 404.937 C 84.723 408.088 85.865 415.715 87.156 418.804 C 87.589 419.849 87.827 421.162 87.684 421.723 C 87.537 422.289 88.148 425.081 89.044 427.938 C 91.835 436.879 91.708 440.672 88.491 444.731 C 87.917 445.461 87.603 445.879 87.416 446.157 C 97.096 443.686 104.254 434.917 104.254 424.484 L 104.254 323.381 C 104.059 323.456 103.918 323.628 103.918 323.83 Z" fill="#d30529"/>
  <path d="M -0.446 396.511 L 8.592 396.511 L 13.801 419.574 L 13.889 419.574 L 13.889 396.511 L 21.457 396.511 L 21.457 433.925 L 12.585 433.925 L 7.195 410.811 L 7.113 410.811 L 7.113 433.925 L -0.446 433.925 L -0.446 396.511 Z M 25.369 396.511 L 37.586 396.511 C 43.361 396.511 46.056 400.236 46.056 405.842 C 46.056 409.819 44.623 413.385 41.191 414.215 L 41.191 414.318 C 45.279 414.798 46.922 418.991 46.922 422.863 C 46.922 429.364 44.318 433.925 37.586 433.925 L 25.369 433.925 L 25.369 396.511 Z M 33.45 411.177 L 35.414 411.177 C 37.055 411.177 37.973 409.401 37.973 407.417 C 37.973 405.311 37.055 403.536 35.414 403.536 L 33.45 403.536 L 33.45 411.177 Z M 33.45 426.902 L 35.713 426.902 C 37.183 426.902 38.578 425.336 38.578 422.289 C 38.578 419.418 37.183 417.781 35.713 417.781 L 33.45 417.781 L 33.45 426.902 Z M 54.966 396.511 L 65.138 396.511 L 72.7 433.925 L 64.093 433.925 L 63.282 427.38 L 56.847 427.38 L 56.011 433.925 L 47.406 433.925 L 54.966 396.511 Z M 60.103 404.161 L 60.012 404.161 L 57.795 420.036 L 62.318 420.036 L 60.103 404.161 Z" fill="#fff"/>
  <path d="M 241.253 18.58 C 258.686 48.784 249.045 87.361 219.453 105.795 L 217.581 106.892 L 215.691 107.966 C 196.676 118.101 173.884 118.101 154.876 107.966 C 110.947 84.54 108.85 22.357 151.099 -3.957 C 151.704 -4.337 152.309 -4.703 152.927 -5.063 L 154.824 -6.137 C 173.832 -16.264 196.639 -16.264 215.647 -6.137 C 226.357 -0.479 235.231 8.088 241.253 18.58 Z" fill="#fab88b"/>
  <path d="M 241.836 75.958 L 239.961 77.054 L 238.08 78.121 C 219.057 88.25 196.265 88.25 177.257 78.121 C 155.429 66.553 142.114 43.546 142.988 18.864 C 143.21 12.066 144.517 5.349 146.86 -1.033 C 107 28.775 114.359 90.562 160.099 110.175 C 178.027 117.855 198.445 117.034 215.691 107.966 L 217.581 106.892 L 219.453 105.795 C 231.685 98.189 241.028 86.69 245.954 73.151 C 244.612 74.115 243.253 75.054 241.836 75.958 Z" fill="#f9a66e"/>
  <ellipse cx="40.81" cy="14.54" rx="7.456" ry="12.441" transform="matrix(0.591028, -0.806651, 0.806651, 0.591028, 171.311035, 31.796162)" fill="#fcd4b9"/>
  <ellipse cx="48.87" cy="20.45" rx="1.984" ry="3.313" transform="matrix(0.591028, -0.806651, 0.806651, 0.591028, 116.373505, 26.472187)" fill="#fcd4b9"/>
  <path d="M 252.402 50.471 C 252.321 26.79 239.686 4.931 219.207 -6.958 L 216.714 -8.249 C 207.043 -13.412 196.236 -16.16 185.258 -16.226 L 185.258 -11.256 C 194.49 -11.241 203.602 -9.173 211.938 -5.211 C 204.489 4.729 190.527 16.006 173.726 25.97 L 156.315 -4.122 C 163.674 -8.003 171.735 -10.368 180.04 -11.054 L 179.637 -16.026 C 170.54 -15.271 161.69 -12.653 153.651 -8.33 C 153.009 -7.987 152.375 -7.629 151.697 -7.226 C 150.413 -6.502 149.196 -5.734 147.986 -4.942 C 129.911 6.984 118.783 26.962 118.119 48.606 L 118.119 51.336 C 118.187 75.032 130.83 96.9 151.315 108.787 L 153.801 110.078 C 173.532 120.594 197.213 120.594 216.96 110.078 C 217.609 109.75 218.23 109.378 219.072 108.883 L 220.879 107.832 C 239.873 96.027 251.716 75.494 252.455 53.135 L 252.402 50.471 Z M 246.94 58.195 C 246.94 58.836 246.777 59.5 246.678 60.142 L 246.381 61.905 L 246.007 63.83 C 245.888 64.391 245.769 64.965 245.604 65.532 C 245.461 66.113 245.283 66.808 245.112 67.457 C 244.933 68.098 244.812 68.568 244.634 69.121 C 244.463 69.666 244.254 70.383 244.023 71.01 C 243.792 71.629 243.642 72.077 243.448 72.621 C 243.253 73.173 242.969 73.875 242.731 74.495 C 242.476 75.113 242.298 75.516 242.082 76.033 C 241.858 76.546 241.508 77.241 241.237 77.874 L 240.492 79.368 C 240.192 79.958 239.873 80.561 239.521 81.159 C 239.26 81.621 238.991 82.098 238.701 82.593 C 238.402 83.091 237.999 83.733 237.625 84.309 C 237.244 84.89 237.06 85.249 236.738 85.704 C 236.417 86.153 235.962 86.824 235.575 87.376 L 234.589 88.69 L 233.276 90.331 L 232.253 91.578 L 230.842 93.138 C 230.468 93.519 230.119 93.921 229.745 94.302 L 228.207 95.802 L 227.08 96.9 L 225.371 98.361 C 224.999 98.682 224.619 99.003 224.216 99.302 C 223.835 99.615 222.9 100.347 222.229 100.847 L 221.237 101.601 C 220.32 102.25 219.372 102.862 218.43 103.458 L 201.131 73.294 C 218.162 63.717 234.963 57.337 247.208 55.881 C 247.186 56.061 247.186 56.224 247.208 56.383 C 247.111 56.985 247.03 57.606 246.977 58.195 L 246.94 58.195 Z M 247.433 50.911 C 234.468 52.381 216.617 59.045 198.654 69.121 L 188.712 51.881 L 240.335 22.052 C 245.015 30.94 247.448 40.859 247.433 50.911 Z M 216.364 -2.846 C 225.081 2.148 232.433 9.215 237.775 17.722 L 186.176 47.554 L 176.234 30.321 C 193.915 19.775 208.633 7.648 216.364 -2.846 Z M 123.359 45.365 C 123.359 44.725 123.359 44.104 123.559 43.471 C 123.762 42.85 123.709 42.127 123.806 41.486 C 123.911 40.837 124.03 40.246 124.127 39.627 C 124.233 39 124.38 38.307 124.501 37.687 L 124.963 35.843 C 125.106 35.194 125.284 34.581 125.456 33.932 L 125.964 32.134 C 126.173 31.514 126.367 30.896 126.598 30.269 C 126.815 29.648 127.016 29.096 127.247 28.537 C 127.471 27.963 127.709 27.314 127.97 26.724 L 128.703 25.006 C 128.971 24.41 129.262 23.836 129.554 23.259 C 129.851 22.694 130.104 22.14 130.397 21.59 C 130.694 21.051 131.015 20.446 131.336 19.909 L 132.293 18.29 C 132.643 17.731 132.993 17.194 133.352 16.677 C 133.732 16.149 134.023 15.625 134.375 15.126 C 134.724 14.633 135.151 14.066 135.545 13.544 L 136.658 12.088 C 137.092 11.573 137.51 11.058 137.965 10.559 C 138.405 10.051 138.724 9.633 139.157 9.193 C 139.575 8.731 140.068 8.192 140.546 7.714 L 141.815 6.423 C 142.314 5.93 142.838 5.483 143.344 5.013 L 144.651 3.818 L 146.382 2.417 C 146.838 2.073 147.234 1.721 147.689 1.402 C 148.129 1.072 149.031 0.401 149.717 -0.061 C 150.413 -0.54 150.465 -0.615 150.868 -0.861 C 151.264 -1.114 151.667 -1.352 152.054 -1.614 L 169.465 28.425 C 152.368 38.008 135.516 44.404 123.306 45.941 C 123.328 45.746 123.328 45.567 123.359 45.365 Z M 123.089 50.911 C 136.038 49.457 153.897 42.791 171.854 32.715 L 181.796 49.948 L 130.173 79.786 C 125.5 70.874 123.06 60.978 123.089 50.911 Z M 132.681 84.07 L 184.279 54.218 L 194.237 71.457 C 184.348 77.188 175.042 83.854 166.398 91.345 L 169.72 95.056 C 178.13 87.801 187.183 81.353 196.804 75.787 L 214.199 105.876 C 213.198 106.393 212.184 106.892 211.177 107.361 L 209.872 107.915 L 207.714 108.833 L 206.191 109.348 L 204.176 110.078 L 202.663 110.602 L 200.729 111.138 L 199.035 111.519 L 197.101 111.944 L 195.407 112.212 L 193.445 112.533 L 191.751 112.705 L 189.766 112.885 L 188.07 112.885 L 186.086 112.885 L 184.414 112.885 C 183.743 112.885 183.05 112.885 182.376 112.885 L 180.735 112.885 L 178.698 112.683 L 177.085 112.483 C 176.384 112.483 175.682 112.296 175.011 112.19 L 173.429 111.893 C 172.727 111.765 172.032 111.622 171.361 111.444 L 169.81 111.072 L 167.599 110.602 L 166.107 110.146 L 164.055 109.429 L 162.576 108.883 L 160.517 108.003 L 159.122 107.392 L 158.599 107.139 C 160.533 104.637 162.638 102.257 164.897 100.026 L 161.369 96.526 C 158.755 99.1 156.353 101.87 154.15 104.802 C 145.434 99.758 138.068 92.652 132.733 84.114 L 132.681 84.07 Z" fill="#202c35"/>
  <path d="M 373.059 16.021 C 390.492 46.225 380.849 84.8 351.259 103.236 L 349.385 104.332 L 347.497 105.407 C 328.483 115.541 305.691 115.541 286.681 105.407 C 242.753 81.98 240.657 19.797 282.905 -6.518 C 283.51 -6.898 284.113 -7.263 284.734 -7.622 L 286.63 -8.696 C 305.638 -18.824 328.445 -18.824 347.453 -8.696 C 358.163 -3.039 367.036 5.527 373.059 16.021 Z" fill="#fab88b"/>
  <path d="M 373.64 73.397 L 371.768 74.495 L 369.887 75.562 C 350.863 85.689 328.071 85.689 309.063 75.562 C 287.233 63.995 273.918 40.985 274.792 16.305 C 275.016 9.505 276.323 2.788 278.666 -3.592 C 238.806 26.216 246.163 88.003 291.906 107.616 C 309.831 115.296 330.252 114.474 347.497 105.407 L 349.385 104.332 L 351.259 103.236 C 363.491 95.631 372.835 84.129 377.761 70.592 C 376.416 71.554 375.059 72.495 373.64 73.397 Z" fill="#f9a66e"/>
  <ellipse cx="40.81" cy="14.54" rx="7.456" ry="12.441" transform="matrix(0.591028, -0.806651, 0.806651, 0.591028, 303.119537, 29.243244)" fill="#fcd4b9"/>
  <ellipse cx="48.87" cy="20.45" rx="1.984" ry="3.313" transform="matrix(0.591028, -0.806651, 0.806651, 0.591028, 248.181946, 23.919285)" fill="#fcd4b9"/>
  <path d="M 384.209 47.91 C 384.127 24.23 371.493 2.37 351.013 -9.518 L 348.52 -10.808 C 338.847 -15.973 328.043 -18.719 317.065 -18.787 L 317.065 -13.815 C 326.296 -13.802 335.408 -11.734 343.744 -7.772 C 336.295 2.17 322.332 13.447 305.532 23.409 L 288.122 -6.683 C 295.481 -10.563 303.541 -12.928 311.846 -13.615 L 311.444 -18.585 C 302.347 -17.832 293.494 -15.212 285.457 -10.891 C 284.815 -10.548 284.181 -10.189 283.502 -9.787 C 282.219 -9.063 281.002 -8.293 279.792 -7.503 C 261.717 4.423 250.59 24.403 249.925 46.045 L 249.925 48.777 C 249.993 72.473 262.635 94.339 283.121 106.228 L 285.607 107.519 C 305.339 118.035 329.02 118.035 348.767 107.519 C 349.416 107.189 350.034 106.818 350.879 106.325 L 352.685 105.273 C 371.678 93.466 383.522 72.935 384.262 50.575 L 384.209 47.91 Z M 378.746 55.635 C 378.746 56.277 378.581 56.941 378.484 57.584 L 378.185 59.344 L 377.813 61.271 C 377.692 61.83 377.574 62.404 377.411 62.972 C 377.268 63.555 377.09 64.248 376.918 64.897 C 376.738 65.539 376.619 66.008 376.441 66.562 C 376.269 67.105 376.06 67.823 375.827 68.45 C 375.596 69.07 375.448 69.517 375.253 70.062 C 375.059 70.614 374.775 71.314 374.538 71.934 C 374.282 72.555 374.104 72.957 373.886 73.472 C 373.664 73.987 373.312 74.68 373.044 75.316 L 372.298 76.807 C 371.999 77.397 371.678 78.002 371.328 78.6 C 371.066 79.062 370.798 79.54 370.507 80.033 C 370.208 80.532 369.805 81.174 369.431 81.749 C 369.051 82.332 368.864 82.688 368.545 83.143 C 368.224 83.592 367.768 84.263 367.379 84.815 L 366.395 86.129 L 365.082 87.772 L 364.059 89.017 L 362.649 90.577 C 362.275 90.958 361.925 91.36 361.551 91.741 L 360.013 93.241 L 358.887 94.339 L 357.177 95.802 C 356.803 96.123 356.423 96.442 356.02 96.742 C 355.64 97.056 354.707 97.787 354.036 98.286 L 353.044 99.041 C 352.124 99.69 351.178 100.301 350.236 100.9 L 332.938 70.733 C 349.968 61.157 366.767 54.777 379.015 53.322 C 378.993 53.501 378.993 53.666 379.015 53.822 C 378.918 54.427 378.836 55.045 378.784 55.635 L 378.746 55.635 Z M 379.239 48.35 C 366.274 49.822 348.424 56.486 330.458 66.562 L 320.519 49.321 L 372.142 19.491 C 376.819 28.381 379.254 38.299 379.239 48.35 Z M 348.168 -5.404 C 356.887 -0.413 364.237 6.656 369.581 15.163 L 317.98 44.993 L 308.04 27.761 C 325.722 17.216 340.438 5.087 348.168 -5.404 Z M 255.163 42.806 C 255.163 42.164 255.163 41.544 255.366 40.91 C 255.568 40.292 255.515 39.568 255.612 38.926 C 255.716 38.277 255.837 37.687 255.933 37.067 C 256.037 36.44 256.186 35.747 256.307 35.126 L 256.769 33.283 C 256.91 32.634 257.091 32.022 257.262 31.373 L 257.77 29.573 C 257.977 28.955 258.173 28.335 258.404 27.708 C 258.62 27.09 258.822 26.537 259.053 25.976 C 259.277 25.402 259.515 24.753 259.777 24.164 L 260.507 22.448 C 260.776 21.849 261.068 21.275 261.359 20.701 C 261.658 20.133 261.911 19.581 262.203 19.029 C 262.5 18.492 262.822 17.887 263.143 17.35 L 264.098 15.731 C 264.447 15.17 264.799 14.633 265.158 14.118 C 265.539 13.588 265.829 13.065 266.181 12.565 C 266.531 12.072 266.955 11.507 267.351 10.983 L 268.465 9.529 C 268.896 9.014 269.314 8.497 269.769 7.998 C 270.209 7.492 270.53 7.074 270.964 6.632 C 271.382 6.17 271.875 5.633 272.352 5.156 L 273.621 3.864 C 274.121 3.371 274.644 2.923 275.15 2.454 L 276.457 1.259 L 278.189 -0.144 C 278.644 -0.487 279.04 -0.837 279.495 -1.158 C 279.935 -1.488 280.837 -2.159 281.524 -2.621 C 282.219 -3.099 282.27 -3.174 282.674 -3.42 C 283.068 -3.673 283.473 -3.913 283.86 -4.175 L 301.271 25.866 C 284.173 35.447 267.321 41.843 255.113 43.381 C 255.135 43.187 255.135 43.007 255.163 42.806 Z M 254.895 48.35 C 267.844 46.896 285.704 40.232 303.66 30.156 L 313.6 47.389 L 261.979 77.225 C 257.306 68.315 254.866 58.418 254.895 48.35 Z M 264.487 81.511 L 316.086 51.657 L 326.041 68.898 C 316.154 74.629 306.846 81.293 298.204 88.786 L 301.524 92.496 C 309.937 85.242 318.99 78.794 328.608 73.226 L 346.006 103.317 C 345.005 103.832 343.991 104.332 342.983 104.802 L 341.676 105.355 L 339.52 106.272 L 337.998 106.787 L 335.983 107.519 L 334.467 108.041 L 332.533 108.578 L 330.839 108.96 L 328.907 109.385 L 327.213 109.653 L 325.251 109.975 L 323.557 110.146 L 321.57 110.324 L 319.876 110.324 L 317.892 110.324 L 316.22 110.324 C 315.549 110.324 314.854 110.324 314.183 110.324 L 312.542 110.324 L 310.504 110.124 L 308.892 109.922 C 308.19 109.922 307.488 109.735 306.817 109.631 L 305.235 109.332 C 304.534 109.205 303.838 109.064 303.167 108.883 L 301.614 108.512 L 299.405 108.041 L 297.912 107.585 L 295.861 106.87 L 294.383 106.325 L 292.324 105.443 L 290.927 104.831 L 290.405 104.578 C 292.339 102.079 294.442 99.698 296.704 97.465 L 293.175 93.965 C 290.561 96.541 288.159 99.309 285.957 102.242 C 277.24 97.197 269.875 90.093 264.538 81.555 L 264.487 81.511 Z" fill="#202c35"/>
  <path d="M 487.633 77.197 C 505.066 107.398 495.423 145.975 465.833 164.409 L 463.959 165.507 L 462.071 166.581 C 443.054 176.716 420.262 176.716 401.254 166.581 C 357.327 143.155 355.23 80.972 397.477 54.658 C 398.082 54.277 398.687 53.912 399.307 53.553 L 401.202 52.478 C 420.212 42.351 443.017 42.351 462.027 52.478 C 472.737 58.136 481.609 66.703 487.633 77.197 Z" fill="#fab88b"/>
  <path d="M 488.214 134.573 L 486.342 135.668 L 484.461 136.738 C 465.437 146.864 442.645 146.864 423.635 136.738 C 401.807 125.17 388.492 102.16 389.366 77.481 C 389.59 70.68 390.897 63.964 393.24 57.584 C 353.378 87.392 360.737 149.179 406.479 168.792 C 424.405 176.47 444.823 175.649 462.071 166.581 L 463.959 165.507 L 465.833 164.409 C 478.065 156.806 487.409 145.304 492.334 131.766 C 490.99 132.729 489.633 133.669 488.214 134.573 Z" fill="#f9a66e"/>
  <ellipse cx="40.81" cy="14.54" rx="7.456" ry="12.441" transform="matrix(0.591028, -0.806651, 0.806651, 0.591028, 417.692688, 90.422676)" fill="#fcd4b9"/>
  <ellipse cx="48.87" cy="20.45" rx="1.984" ry="3.313" transform="matrix(0.591028, -0.806651, 0.806651, 0.591028, 362.755127, 85.098724)" fill="#fcd4b9"/>
  <path d="M 498.783 109.086 C 498.699 85.405 486.064 63.546 465.587 51.657 L 463.094 50.366 C 453.421 45.202 442.614 42.454 431.636 42.388 L 431.636 47.358 C 440.87 47.374 449.98 49.442 458.318 53.404 C 450.869 63.346 436.905 74.621 420.106 84.584 L 402.695 54.493 C 410.054 50.612 418.113 48.247 426.42 47.561 L 426.018 42.589 C 416.918 43.343 408.068 45.963 400.031 50.284 C 399.389 50.627 398.753 50.986 398.075 51.389 C 396.793 52.112 395.574 52.882 394.366 53.672 C 376.291 65.598 365.163 85.577 364.499 107.22 L 364.499 109.953 C 364.565 133.647 377.208 155.515 397.695 167.403 L 400.181 168.693 C 419.913 179.209 443.593 179.209 463.341 168.693 C 463.99 168.365 464.608 167.993 465.453 167.5 L 467.259 166.446 C 486.251 154.641 498.096 134.109 498.835 111.75 L 498.783 109.086 Z M 493.32 116.81 C 493.32 117.452 493.155 118.117 493.058 118.757 L 492.759 120.519 L 492.385 122.444 C 492.266 123.005 492.147 123.579 491.982 124.147 C 491.842 124.728 491.663 125.423 491.492 126.072 C 491.311 126.714 491.193 127.183 491.014 127.737 C 490.843 128.281 490.634 128.998 490.401 129.625 C 490.17 130.243 490.02 130.692 489.826 131.235 C 489.633 131.788 489.349 132.489 489.109 133.11 C 488.856 133.728 488.678 134.133 488.46 134.648 C 488.236 135.162 487.886 135.855 487.618 136.491 L 486.872 137.983 C 486.573 138.572 486.251 139.177 485.902 139.774 C 485.64 140.236 485.371 140.715 485.081 141.208 C 484.782 141.707 484.379 142.348 484.005 142.924 C 483.625 143.507 483.438 143.863 483.116 144.319 C 482.797 144.768 482.342 145.439 481.953 145.991 L 480.967 147.304 L 479.654 148.945 L 478.633 150.193 L 477.22 151.753 C 476.849 152.133 476.499 152.536 476.125 152.916 L 474.587 154.417 L 473.461 155.515 L 471.751 156.978 C 471.377 157.297 470.997 157.618 470.594 157.917 C 470.213 158.229 469.281 158.962 468.61 159.461 L 467.617 160.216 C 466.698 160.865 465.752 161.477 464.81 162.075 L 447.512 131.909 C 464.542 122.332 481.341 115.952 493.588 114.496 C 493.566 114.676 493.566 114.841 493.588 114.997 C 493.492 115.6 493.408 116.22 493.357 116.81 L 493.32 116.81 Z M 493.813 109.526 C 480.848 110.998 462.997 117.661 445.032 127.737 L 435.093 110.496 L 486.713 80.666 C 491.393 89.556 493.826 99.474 493.813 109.526 Z M 462.742 55.769 C 471.461 60.763 478.811 67.831 484.155 76.337 L 432.554 106.169 L 422.614 88.936 C 440.293 78.391 455.011 66.263 462.742 55.769 Z M 369.737 103.982 C 369.737 103.339 369.737 102.719 369.94 102.085 C 370.142 101.465 370.089 100.743 370.186 100.101 C 370.289 99.452 370.41 98.862 370.507 98.242 C 370.611 97.615 370.76 96.922 370.879 96.302 L 371.343 94.458 C 371.484 93.809 371.664 93.197 371.836 92.548 L 372.342 90.749 C 372.551 90.131 372.747 89.51 372.978 88.883 C 373.193 88.265 373.396 87.711 373.627 87.152 C 373.849 86.578 374.089 85.929 374.351 85.339 L 375.081 83.623 C 375.349 83.025 375.642 82.45 375.932 81.876 C 376.232 81.309 376.485 80.756 376.775 80.204 C 377.074 79.667 377.395 79.062 377.717 78.526 L 378.671 76.906 C 379.021 76.345 379.373 75.809 379.732 75.294 C 380.112 74.764 380.403 74.24 380.755 73.741 C 381.105 73.248 381.529 72.682 381.925 72.159 L 383.038 70.702 C 383.47 70.188 383.888 69.673 384.343 69.173 C 384.783 68.665 385.104 68.247 385.538 67.807 C 385.956 67.345 386.448 66.808 386.926 66.331 L 388.193 65.04 C 388.695 64.547 389.216 64.098 389.724 63.629 L 391.031 62.435 L 392.762 61.031 C 393.218 60.688 393.612 60.336 394.067 60.017 C 394.507 59.687 395.411 59.016 396.098 58.554 C 396.793 58.077 396.843 58.002 397.246 57.755 C 397.642 57.502 398.047 57.263 398.434 57.001 L 415.845 87.04 C 398.746 96.623 381.894 103.018 369.684 104.556 C 369.709 104.362 369.709 104.182 369.737 103.982 Z M 369.469 109.526 C 382.418 108.072 400.278 101.406 418.234 91.332 L 428.174 108.564 L 376.553 138.401 C 371.88 129.491 369.438 119.593 369.469 109.526 Z M 379.059 142.684 L 430.66 112.832 L 440.615 130.072 C 430.726 135.803 421.42 142.469 412.778 149.962 L 416.098 153.671 C 424.508 146.415 433.561 139.969 443.182 134.401 L 460.577 164.491 C 459.579 165.008 458.564 165.507 457.557 165.978 L 456.25 166.53 L 454.094 167.447 L 452.572 167.962 L 450.556 168.693 L 449.041 169.216 L 447.107 169.753 L 445.413 170.134 L 443.481 170.56 L 441.787 170.829 L 439.825 171.15 L 438.131 171.322 L 436.144 171.5 L 434.45 171.5 L 432.466 171.5 L 430.794 171.5 C 430.123 171.5 429.428 171.5 428.757 171.5 L 427.115 171.5 L 425.076 171.297 L 423.466 171.097 C 422.764 171.097 422.062 170.91 421.391 170.805 L 419.807 170.508 C 419.107 170.38 418.412 170.239 417.741 170.059 L 416.188 169.687 L 413.979 169.216 L 412.485 168.761 L 410.435 168.044 L 408.957 167.5 L 406.897 166.618 L 405.5 166.006 L 404.979 165.753 C 406.913 163.252 409.016 160.872 411.278 158.641 L 407.749 155.141 C 405.135 157.715 402.733 160.484 400.531 163.417 C 391.814 158.372 384.446 151.266 379.111 142.73 L 379.059 142.684 Z" fill="#202c35"/>
</svg>