<?xml version="1.0" encoding="utf-8"?>
<svg viewBox="86.749 164.127 73.696 72.031" width="73.696" height="72.031" xmlns="http://www.w3.org/2000/svg" xmlns:xlink="http://www.w3.org/1999/xlink">
  <defs>
    <linearGradient x1="-15.614694" y1="-9.1082983" x2="-6.7410073" y2="-9.1082983" id="linearGradient2995" gradientUnits="userSpaceOnUse" gradientTransform="matrix(0, 1.111038, -1.111038, 0, 101.97526, 239.213536)" spreadMethod="pad" xlink:href="#linearGradient3027"/>
    <linearGradient x1="0" y1="0" x2="1" y2="0" id="linearGradient3027" gradientUnits="userSpaceOnUse" gradientTransform="matrix(-4.02e-6,-91.8907,-91.8907,4.02e-6,85.8809,161.434)" spreadMethod="pad">
      <stop id="stop3029" style="stop-color:#97d9f6;stop-opacity:1" offset="0"/>
      <stop id="stop3031" style="stop-color:#0f80cc;stop-opacity:1" offset="0.9202"/>
      <stop id="stop3033" style="stop-color:#0f80cc;stop-opacity:1" offset="1"/>
    </linearGradient>
  </defs>
  <path fill="#fff" d="M 140.926 188.186 L 160.445 188.186 L 160.445 228.286 L 140.926 228.286 L 140.926 188.186 Z"/>
  <path d="M 154.839 223.683 C 154.874 223.116 154.862 222.929 154.785 222.838 C 154.728 222.768 154.687 222.549 154.685 222.301 C 154.683 221.927 154.632 221.786 154.192 220.93 C 153.721 220.017 153.704 219.967 153.788 219.735 C 153.866 219.52 153.855 219.447 153.684 219.055 C 153.514 218.663 153.438 218.577 152.982 218.27 C 152.099 217.673 151.389 217.066 150.207 215.895 C 148.888 214.586 147.792 213.147 146.776 211.389 C 146.423 210.779 146.396 210.754 146.085 210.751 C 145.851 210.75 145.569 210.546 145.57 210.378 C 145.57 210.329 145.284 209.698 144.934 208.976 C 144.025 207.103 143.947 206.704 144.226 205.339 C 144.39 204.53 144.421 204.457 144.765 204.077 C 145.131 203.673 145.074 203.559 144.475 203.5 C 143.676 203.421 143.684 203.426 143.519 202.913 C 143.437 202.661 143.371 202.376 143.371 202.278 C 143.371 201.956 143.736 200.938 144.238 199.859 C 144.511 199.274 144.86 198.475 145.015 198.085 C 145.564 196.697 146.324 195.586 146.936 195.273 C 147.181 195.149 147.656 195.055 149.074 194.851 C 149.862 194.739 149.917 194.681 150.03 193.864 C 150.096 193.388 150.089 193.314 149.965 193.112 C 149.876 192.967 149.827 192.762 149.827 192.526 C 149.827 192.195 149.846 192.155 150.04 192.054 C 150.228 191.958 150.253 191.908 150.253 191.63 C 150.253 190.967 150.386 190.598 150.759 190.236 C 150.847 190.15 150.933 190.061 151.017 189.971 L 146.146 189.971 C 144.49 189.971 143.148 191.312 143.148 192.967 L 143.148 223.522 C 143.148 225.177 144.49 226.519 146.146 226.519 L 155.059 226.519 C 155.029 226.453 154.966 226.345 154.893 226.239 C 154.691 225.944 154.692 226.048 154.839 223.683 Z" fill="#0e499d"/>
  <path d="M 155.248 189.971 L 152.668 189.971 C 152.694 190.001 152.73 190.033 152.774 190.062 C 153.093 190.272 153.577 190.776 153.654 190.978 C 153.771 191.284 153.744 191.69 153.58 192.129 C 153.486 192.382 153.447 192.606 153.474 192.739 C 153.524 192.99 153.276 193.522 152.985 193.793 C 152.88 193.89 152.731 194.092 152.654 194.243 C 152.577 194.394 152.385 194.655 152.229 194.825 C 152.072 194.994 151.955 195.189 151.967 195.254 C 151.981 195.321 152.167 195.469 152.381 195.585 C 152.597 195.7 152.918 195.927 153.097 196.088 C 153.274 196.25 153.633 196.533 153.895 196.718 C 154.834 197.382 155.285 198.517 155.289 200.231 C 155.292 200.99 155.662 202.771 155.928 203.296 C 156.291 204.016 156.422 204.413 156.536 205.131 C 156.683 206.054 156.687 206.064 156.98 206.187 C 157.261 206.304 157.987 206.894 157.987 207.005 C 157.987 207.043 158.059 207.175 158.147 207.298 L 158.245 207.436 L 158.245 192.967 C 158.245 191.312 156.903 189.971 155.248 189.971 Z M 158.2 210.035 C 158.2 210.07 158.041 210.273 157.849 210.484 C 156.503 211.958 154.199 211.63 153.353 209.844 C 153.149 209.412 153.127 209.303 153.127 208.693 C 153.127 208.109 153.153 207.964 153.317 207.613 C 153.579 207.052 154.081 206.538 154.63 206.268 C 154.879 206.146 155.098 206.022 155.117 205.993 C 155.135 205.964 154.908 205.456 154.616 204.863 C 153.941 203.498 153.86 203.254 153.554 201.625 C 153.415 200.887 153.287 200.245 153.269 200.196 C 153.213 200.039 153.015 200.1 152.525 200.426 L 152.044 200.745 L 151.61 201.846 C 151.371 202.451 151.175 203.037 151.175 203.147 C 151.175 203.27 151.245 203.411 151.36 203.519 C 151.644 203.784 151.72 203.979 152.202 205.66 C 152.557 206.899 152.636 207.261 152.579 207.386 C 152.525 207.505 152.56 207.766 152.724 208.454 C 152.963 209.469 153.053 210.006 153.165 211.105 C 153.279 212.22 153.398 212.574 154.045 213.694 C 154.474 214.44 154.606 214.888 154.908 216.633 C 155.047 217.433 155.186 218.138 155.219 218.198 C 155.251 218.259 155.392 218.478 155.532 218.685 C 155.915 219.255 155.973 219.517 155.835 220.065 C 155.772 220.316 155.701 220.693 155.677 220.903 C 155.628 221.325 155.781 222.347 155.954 222.761 C 156.012 222.901 156.044 223.077 156.025 223.152 C 156.005 223.228 156.087 223.602 156.207 223.985 C 156.581 225.183 156.564 225.691 156.133 226.235 C 156.056 226.333 156.014 226.389 155.989 226.426 C 157.286 226.095 158.245 224.92 158.245 223.522 L 158.245 209.975 C 158.219 209.985 158.2 210.008 158.2 210.035 Z" fill="#d30529"/>
  <path d="M 144.216 219.774 L 145.427 219.774 L 146.125 222.864 L 146.137 222.864 L 146.137 219.774 L 147.151 219.774 L 147.151 224.787 L 145.962 224.787 L 145.24 221.69 L 145.229 221.69 L 145.229 224.787 L 144.216 224.787 L 144.216 219.774 Z M 147.675 219.774 L 149.312 219.774 C 150.086 219.774 150.447 220.273 150.447 221.024 C 150.447 221.557 150.255 222.035 149.795 222.146 L 149.795 222.16 C 150.343 222.224 150.563 222.786 150.563 223.305 C 150.563 224.176 150.214 224.787 149.312 224.787 L 147.675 224.787 L 147.675 219.774 Z M 148.758 221.739 L 149.021 221.739 C 149.241 221.739 149.364 221.501 149.364 221.235 C 149.364 220.953 149.241 220.715 149.021 220.715 L 148.758 220.715 L 148.758 221.739 Z M 148.758 223.846 L 149.061 223.846 C 149.258 223.846 149.445 223.636 149.445 223.228 C 149.445 222.843 149.258 222.624 149.061 222.624 L 148.758 222.624 L 148.758 223.846 Z M 151.641 219.774 L 153.004 219.774 L 154.017 224.787 L 152.864 224.787 L 152.755 223.91 L 151.893 223.91 L 151.781 224.787 L 150.628 224.787 L 151.641 219.774 Z M 152.329 220.799 L 152.317 220.799 L 152.02 222.926 L 152.626 222.926 L 152.329 220.799 Z" fill="#fff"/>
  <path d="M 119.229 228.286 C 118.762 228.286 118.383 228.425 118.092 228.7 C 117.802 228.977 117.654 229.339 117.654 229.783 C 117.654 230.013 117.69 230.222 117.763 230.414 C 117.835 230.607 117.948 230.785 118.098 230.946 C 118.25 231.107 118.551 231.327 119.002 231.605 C 119.555 231.943 119.916 232.217 120.091 232.43 C 120.264 232.644 120.35 232.868 120.35 233.102 C 120.35 233.414 120.247 233.663 120.035 233.851 C 119.824 234.039 119.541 234.132 119.189 234.132 C 118.819 234.132 118.496 234.002 118.219 233.742 C 117.942 233.483 117.802 233.139 117.799 232.709 L 117.627 232.709 L 117.627 234.271 L 117.799 234.271 C 117.851 234.124 117.924 234.047 118.019 234.047 C 118.066 234.047 118.173 234.079 118.34 234.138 C 118.747 234.283 119.081 234.353 119.343 234.353 C 119.797 234.353 120.182 234.194 120.504 233.872 C 120.826 233.55 120.988 233.162 120.988 232.709 C 120.988 232.357 120.881 232.045 120.671 231.772 C 120.461 231.499 120.051 231.181 119.44 230.816 C 118.915 230.5 118.573 230.243 118.416 230.043 C 118.257 229.842 118.177 229.621 118.177 229.378 C 118.177 229.114 118.273 228.903 118.464 228.746 C 118.655 228.588 118.904 228.51 119.216 228.51 C 119.568 228.51 119.861 228.615 120.093 228.825 C 120.325 229.035 120.459 229.326 120.498 229.701 L 120.671 229.701 L 120.671 228.347 L 120.511 228.347 C 120.49 228.416 120.473 228.46 120.456 228.48 C 120.44 228.5 120.408 228.51 120.363 228.51 C 120.307 228.51 120.207 228.487 120.066 228.44 C 119.764 228.339 119.485 228.286 119.229 228.286 Z M 124.86 228.286 C 124.291 228.286 123.776 228.42 123.31 228.688 C 122.842 228.956 122.473 229.328 122.2 229.801 C 121.927 230.274 121.792 230.777 121.792 231.312 C 121.792 232.031 122.028 232.673 122.502 233.235 C 122.977 233.796 123.547 234.146 124.207 234.28 C 124.358 234.359 124.574 234.562 124.857 234.891 C 125.176 235.262 125.446 235.53 125.667 235.689 C 125.888 235.848 126.128 235.965 126.381 236.042 C 126.634 236.119 126.907 236.158 127.203 236.158 C 127.56 236.158 127.882 236.095 128.164 235.967 L 128.1 235.81 C 127.937 235.869 127.762 235.897 127.578 235.897 C 127.328 235.897 127.075 235.815 126.822 235.65 C 126.569 235.484 126.253 235.167 125.876 234.7 C 125.698 234.477 125.576 234.336 125.507 234.28 C 126.23 234.139 126.824 233.789 127.287 233.228 C 127.75 232.668 127.982 232.029 127.982 231.312 C 127.982 230.461 127.679 229.746 127.079 229.163 C 126.477 228.58 125.738 228.286 124.86 228.286 Z M 128.376 228.286 L 128.385 228.471 C 128.763 228.471 128.975 228.582 129.023 228.806 C 129.04 228.887 129.048 229.035 129.05 229.247 L 129.046 233.326 C 129.044 233.63 129 233.824 128.917 233.908 C 128.833 233.992 128.692 234.045 128.487 234.066 L 128.478 234.25 L 132.25 234.25 L 132.348 233.326 L 132.175 233.326 C 132.126 233.578 132.013 233.758 131.833 233.86 C 131.654 233.963 131.335 234.014 130.875 234.014 L 130.519 234.014 C 130.105 234.014 129.865 233.865 129.802 233.564 C 129.789 233.505 129.785 233.441 129.784 233.37 L 129.8 229.247 C 129.799 228.944 129.837 228.74 129.917 228.64 C 129.997 228.541 130.143 228.485 130.353 228.471 L 130.343 228.286 L 128.376 228.286 Z M 124.921 228.51 C 125.562 228.51 126.085 228.762 126.489 229.272 C 126.894 229.781 127.094 230.479 127.094 231.364 C 127.094 232.201 126.89 232.872 126.483 233.376 C 126.076 233.881 125.534 234.132 124.86 234.132 C 124.213 234.132 123.688 233.873 123.285 233.353 C 122.883 232.832 122.684 232.156 122.684 231.324 C 122.684 230.47 122.885 229.786 123.291 229.275 C 123.697 228.764 124.241 228.51 124.921 228.51 Z M 133.595 229.386 C 133.503 229.386 133.433 229.418 133.381 229.48 C 133.328 229.543 133.311 229.618 133.329 229.71 C 133.348 229.799 133.398 229.877 133.478 229.943 C 133.557 230.008 133.643 230.043 133.734 230.043 C 133.824 230.043 133.892 230.008 133.94 229.943 C 133.989 229.877 134.004 229.799 133.986 229.71 C 133.967 229.618 133.918 229.543 133.844 229.48 C 133.768 229.418 133.685 229.386 133.595 229.386 Z M 136.084 230.012 C 135.927 230.614 135.589 230.939 135.068 230.992 L 135.074 231.164 L 135.681 231.164 L 135.669 233.201 C 135.67 233.55 135.681 233.781 135.706 233.9 C 135.765 234.182 135.95 234.326 136.259 234.326 C 136.705 234.326 137.174 234.054 137.664 233.509 L 137.516 233.382 C 137.163 233.741 136.849 233.921 136.576 233.921 C 136.408 233.921 136.304 233.824 136.265 233.634 C 136.254 233.587 136.25 233.533 136.25 233.47 L 136.255 231.164 L 137.184 231.164 L 137.175 230.889 L 136.259 230.889 L 136.259 230.012 L 136.084 230.012 Z M 139.671 230.78 C 139.152 230.78 138.73 231.032 138.402 231.533 C 138.075 232.034 137.974 232.59 138.102 233.201 C 138.179 233.559 138.329 233.837 138.559 234.033 C 138.789 234.228 139.081 234.326 139.43 234.326 C 139.754 234.326 140.207 234.243 140.397 234.078 C 140.587 233.913 140.763 233.644 140.926 233.277 L 140.796 233.141 C 140.537 233.617 140.014 233.858 139.62 233.858 C 139.078 233.858 138.746 233.56 138.622 232.969 C 138.606 232.893 138.594 232.812 138.586 232.727 C 139.231 232.625 139.719 232.444 140.049 232.183 C 140.378 231.921 140.71 231.644 140.648 231.352 C 140.611 231.177 140.521 231.041 140.382 230.938 C 140.241 230.834 139.875 230.78 139.671 230.78 Z M 133.998 230.801 L 132.88 231.058 L 132.88 231.258 L 133.266 231.209 C 133.454 231.209 133.564 231.294 133.599 231.464 C 133.61 231.52 133.618 231.599 133.62 231.699 L 133.608 233.528 C 133.605 233.781 133.577 233.928 133.52 233.972 C 133.463 234.016 133.313 234.039 133.069 234.039 L 133.063 234.211 L 134.838 234.211 L 134.835 234.039 C 134.588 234.039 134.428 234.019 134.357 233.981 C 134.287 233.943 134.239 233.875 134.218 233.769 C 134.203 233.694 134.196 233.564 134.194 233.382 L 134.2 230.801 L 133.998 230.801 Z M 139.387 231.14 C 139.495 231.14 139.6 231.182 139.705 231.264 C 139.808 231.345 139.872 231.436 139.892 231.536 C 139.993 232.022 139.562 232.358 138.592 232.545 C 138.564 232.191 138.626 231.869 138.782 231.578 C 138.938 231.288 139.141 231.14 139.387 231.14 Z" id="SQLite" style="fill:#003b57;fill-opacity:1;fill-rule:nonzero;stroke:none"/>
  <path d="M 116.724 221.305 L 107.099 221.305 C 106.454 221.305 105.926 221.832 105.926 222.477 L 105.926 233.092 C 105.926 233.737 106.454 234.264 107.099 234.264 L 113.438 234.264 C 113.366 231.11 114.443 224.989 116.724 221.305 Z" id="solid-background" style="fill:#0f80cc;fill-opacity:1;fill-rule:nonzero;stroke:none"/>
  <path d="M 116.374 221.647 L 107.099 221.647 C 106.641 221.647 106.268 222.019 106.268 222.477 L 106.268 232.318 C 108.368 231.511 111.522 230.815 113.701 230.847 C 114.14 228.557 115.427 224.067 116.374 221.647 Z" id="gradient-background" style="fill:url(#linearGradient2995);fill-opacity:1;fill-rule:nonzero;stroke:none"/>
  <path d="M 118.969 220.957 C 118.309 220.369 117.511 220.606 116.724 221.305 C 116.606 221.408 116.49 221.524 116.374 221.647 C 115.026 223.076 113.776 225.724 113.387 227.747 C 113.539 228.053 113.657 228.445 113.735 228.744 C 113.755 228.821 113.772 228.893 113.787 228.954 C 113.821 229.099 113.84 229.194 113.84 229.194 C 113.84 229.194 113.827 229.147 113.777 229.004 C 113.769 228.977 113.758 228.946 113.745 228.911 C 113.74 228.896 113.733 228.879 113.725 228.86 C 113.637 228.655 113.393 228.224 113.287 228.036 C 113.195 228.306 113.114 228.559 113.047 228.787 C 113.356 229.352 113.544 230.321 113.544 230.321 C 113.544 230.321 113.527 230.259 113.449 230.039 C 113.381 229.846 113.037 229.244 112.956 229.104 C 112.817 229.616 112.762 229.964 112.811 230.048 C 112.909 230.211 113 230.494 113.082 230.806 C 113.265 231.509 113.392 232.365 113.392 232.365 C 113.392 232.365 113.395 232.422 113.402 232.508 C 113.377 233.099 113.392 233.711 113.438 234.264 C 113.498 234.997 113.612 235.626 113.758 235.963 L 113.856 235.909 C 113.643 235.246 113.556 234.376 113.595 233.374 C 113.651 231.841 114.004 229.993 114.656 228.066 C 115.758 225.158 117.284 222.825 118.683 221.711 C 117.409 222.861 115.684 226.586 115.168 227.966 C 114.589 229.511 114.18 230.96 113.933 232.349 C 114.359 231.047 115.737 230.487 115.737 230.487 C 115.737 230.487 116.412 229.654 117.201 228.464 C 116.728 228.572 115.952 228.756 115.692 228.866 C 115.308 229.027 115.205 229.082 115.205 229.082 C 115.205 229.082 116.447 228.325 117.514 227.982 C 118.98 225.673 120.577 222.392 118.969 220.957" id="feather" style="fill:#003b57;fill-opacity:1;fill-rule:nonzero;stroke:none"/>
  <g id="SvgjsG1044" transform="matrix(0.139357, 0, 0, 0.139357, 103.357269, 180.489273)">
    <svg xmlns="http://www.w3.org/2000/svg" preserveAspectRatio="xMinYMid" viewBox="0 0 25 25" width="288" height="288">
      <path fill="#72a0c1" d="M23 3.4C23 1.7 18.4.2 12.7.2S2.2 1.8 2.2 3.5c0 .2.1.5.2.6l-.5-.5v18h.4C8.4 11.3 22.7 4.5 22.7 4.5c-.2.1-.4.1-.5.2.4-.4.8-.9.8-1.3z" class="colorA0CEC7 svgShape"/>
      <path fill="#222222" d="M23.4 3.6c.1-2.1-5-3.6-10.9-3.6S1.6 1.4 1.6 3.6v18s0-2 0 0S6.8 25 12.5 25s10.9-1.3 10.9-3.4v-18zM12.5.6c6.1 0 10.2 1.5 10.2 2.9 0 1.5-4.1 2.9-10.2 2.9S2.3 5 2.3 3.6s4.1-3 10.2-3zm10.2 21c-.3 1.4-4.4 2.7-10.2 2.7s-9.9-1.4-10.2-2.7v-5.4c1.2 1.5 5.2 2.5 10.2 2.5 4.9 0 9-1 10.2-2.4v5.3zm0-6.1c-.4 1.4-4.4 2.7-10.2 2.7s-9.9-1.4-10.2-2.7v.1-5C3.5 12.1 7.5 13 12.5 13c4.9 0 9-1 10.2-2.4v4.9zm0-5.7c-.4 1.4-4.4 2.7-10.2 2.7S2.6 11.1 2.3 9.8v.2-5.4c1.2 1.3 5.3 2.5 10.2 2.5s9-1 10.2-2.4v5.1z" class="color222 svgShape"/>
      <circle cx="20.1" cy="8.7" r=".9" fill="none" stroke="#222" stroke-miterlimit="10" stroke-width=".497" class="colorStroke222 svgStroke"/>
      <circle cx="20.1" cy="14.7" r=".9" fill="none" stroke="#222" stroke-miterlimit="10" stroke-width=".497" class="colorStroke222 svgStroke"/>
      <circle cx="20.1" cy="20.7" r=".9" fill="none" stroke="#222" stroke-miterlimit="10" stroke-width=".497" class="colorStroke222 svgStroke"/>
    </svg>
  </g>
  <path fill="#fff" d="M 86.749 188.186 L 106.268 188.186 L 106.268 228.286 L 86.749 228.286 L 86.749 188.186 Z"/>
  <path fill="#fab88b" d="M 106.538 176.654 C 108.874 180.701 107.582 185.87 103.617 188.34 L 103.366 188.487 L 103.113 188.631 C 100.565 189.989 97.511 189.989 94.964 188.631 C 89.078 185.492 88.797 177.16 94.458 173.634 C 94.539 173.583 94.62 173.534 94.703 173.486 L 94.957 173.342 C 97.504 171.985 100.56 171.985 103.107 173.342 C 104.542 174.1 105.731 175.248 106.538 176.654 Z"/>
  <path fill="#f9a66e" d="M 106.616 184.342 L 106.365 184.489 L 106.113 184.632 C 103.564 185.989 100.51 185.989 97.963 184.632 C 95.038 183.082 93.254 179.999 93.371 176.692 C 93.401 175.781 93.576 174.881 93.89 174.026 C 88.549 178.02 89.535 186.299 95.664 188.927 C 98.066 189.956 100.802 189.846 103.113 188.631 L 103.366 188.487 L 103.617 188.34 C 105.256 187.321 106.508 185.78 107.168 183.966 C 106.988 184.095 106.806 184.221 106.616 184.342 Z"/>
  <ellipse cx="40.81" cy="14.54" fill="#fcd4b9" rx="0.999" ry="1.667" transform="matrix(0.591028, -0.806651, 0.806651, 0.591028, 66.121368, 199.492706)"/>
  <ellipse cx="48.87" cy="20.45" fill="#fcd4b9" rx="0.266" ry="0.444" transform="matrix(0.591028, -0.806651, 0.806651, 0.591028, 50.506226, 201.384827)"/>
  <path fill="#202c35" d="M 108.032 180.927 C 108.021 177.754 106.328 174.825 103.584 173.232 L 103.25 173.059 C 101.954 172.367 100.506 171.999 99.035 171.99 L 99.035 172.656 C 100.272 172.658 101.493 172.935 102.61 173.466 C 101.612 174.798 99.741 176.309 97.49 177.644 L 95.157 173.612 C 96.143 173.092 97.223 172.775 98.336 172.683 L 98.282 172.017 C 97.063 172.118 95.877 172.469 94.8 173.048 C 94.714 173.094 94.629 173.142 94.538 173.196 C 94.366 173.293 94.203 173.396 94.041 173.502 C 91.619 175.1 90.128 177.777 90.039 180.677 L 90.039 181.043 C 90.048 184.218 91.742 187.148 94.487 188.741 L 94.82 188.914 C 97.464 190.323 100.637 190.323 103.283 188.914 C 103.37 188.87 103.453 188.82 103.566 188.754 L 103.808 188.613 C 106.353 187.031 107.94 184.28 108.039 181.284 L 108.032 180.927 Z M 107.3 181.962 C 107.3 182.048 107.278 182.137 107.265 182.223 L 107.225 182.459 L 107.175 182.717 C 107.159 182.792 107.143 182.869 107.121 182.945 C 107.102 183.023 107.078 183.116 107.055 183.203 C 107.031 183.289 107.015 183.352 106.991 183.426 C 106.968 183.499 106.94 183.595 106.909 183.679 C 106.878 183.762 106.858 183.822 106.832 183.895 C 106.806 183.969 106.768 184.063 106.736 184.146 C 106.702 184.229 106.678 184.283 106.649 184.352 C 106.619 184.421 106.572 184.514 106.536 184.599 L 106.436 184.799 C 106.396 184.878 106.353 184.959 106.306 185.039 C 106.271 185.101 106.235 185.165 106.196 185.231 C 106.156 185.298 106.102 185.384 106.052 185.461 C 106.001 185.539 105.976 185.587 105.933 185.648 C 105.89 185.708 105.829 185.798 105.777 185.872 L 105.645 186.048 L 105.469 186.268 L 105.332 186.435 L 105.143 186.644 C 105.093 186.695 105.046 186.749 104.996 186.8 L 104.79 187.001 L 104.639 187.148 L 104.41 187.344 C 104.36 187.387 104.309 187.43 104.255 187.47 C 104.204 187.512 104.079 187.61 103.989 187.677 L 103.856 187.778 C 103.733 187.865 103.606 187.947 103.48 188.027 L 101.162 183.985 C 103.444 182.702 105.695 181.847 107.336 181.652 C 107.333 181.676 107.333 181.698 107.336 181.719 C 107.323 181.8 107.312 181.883 107.305 181.962 L 107.3 181.962 Z M 107.366 180.986 C 105.629 181.183 103.237 182.076 100.83 183.426 L 99.498 181.116 L 106.415 177.119 C 107.042 178.31 107.368 179.639 107.366 180.986 Z M 103.203 173.783 C 104.371 174.452 105.356 175.399 106.072 176.539 L 99.158 180.536 L 97.826 178.227 C 100.195 176.814 102.167 175.189 103.203 173.783 Z M 90.741 180.243 C 90.741 180.157 90.741 180.074 90.768 179.989 C 90.795 179.906 90.788 179.809 90.801 179.723 C 90.815 179.636 90.831 179.557 90.844 179.474 C 90.858 179.39 90.878 179.297 90.894 179.214 L 90.956 178.967 C 90.975 178.88 90.999 178.798 91.022 178.711 L 91.09 178.47 C 91.118 178.387 91.144 178.304 91.175 178.22 C 91.204 178.137 91.231 178.063 91.262 177.988 C 91.292 177.911 91.324 177.824 91.359 177.745 L 91.457 177.515 C 91.493 177.435 91.532 177.358 91.571 177.281 C 91.611 177.205 91.645 177.131 91.684 177.057 C 91.724 176.985 91.767 176.904 91.81 176.832 L 91.938 176.615 C 91.985 176.54 92.032 176.468 92.08 176.399 C 92.131 176.328 92.17 176.258 92.217 176.191 C 92.264 176.125 92.321 176.049 92.374 175.979 L 92.523 175.784 C 92.581 175.715 92.637 175.646 92.698 175.579 C 92.757 175.511 92.8 175.455 92.858 175.396 C 92.914 175.334 92.98 175.262 93.044 175.198 L 93.214 175.025 C 93.281 174.959 93.351 174.899 93.419 174.836 L 93.594 174.676 L 93.826 174.488 C 93.887 174.442 93.94 174.395 94.001 174.352 C 94.06 174.308 94.181 174.218 94.273 174.156 C 94.366 174.092 94.373 174.082 94.427 174.049 C 94.48 174.015 94.534 173.983 94.586 173.948 L 96.919 177.973 C 94.628 179.257 92.37 180.114 90.734 180.32 C 90.737 180.294 90.737 180.27 90.741 180.243 Z M 90.705 180.986 C 92.44 180.791 94.833 179.898 97.239 178.548 L 98.571 180.857 L 91.654 184.855 C 91.028 183.661 90.701 182.335 90.705 180.986 Z M 91.99 185.429 L 98.904 181.429 L 100.238 183.739 C 98.913 184.507 97.666 185.4 96.508 186.404 L 96.953 186.901 C 98.08 185.929 99.293 185.065 100.582 184.319 L 102.913 188.351 C 102.779 188.42 102.643 188.487 102.508 188.55 L 102.333 188.624 L 102.044 188.747 L 101.84 188.816 L 101.57 188.914 L 101.367 188.984 L 101.108 189.056 L 100.881 189.107 L 100.622 189.164 L 100.395 189.2 L 100.132 189.243 L 99.905 189.266 L 99.639 189.29 L 99.412 189.29 L 99.146 189.29 L 98.922 189.29 C 98.832 189.29 98.739 189.29 98.649 189.29 L 98.429 189.29 L 98.156 189.263 L 97.94 189.236 C 97.846 189.236 97.752 189.211 97.662 189.197 L 97.45 189.157 C 97.356 189.14 97.263 189.121 97.173 189.097 L 96.965 189.047 L 96.669 188.984 L 96.469 188.923 L 96.194 188.827 L 95.996 188.754 L 95.72 188.636 L 95.533 188.554 L 95.463 188.52 C 95.722 188.185 96.004 187.866 96.307 187.567 L 95.834 187.098 C 95.484 187.443 95.162 187.814 94.867 188.207 C 93.699 187.531 92.712 186.579 91.997 185.435 L 91.99 185.429 Z"/>
  <path d="M 100.662 223.683 C 100.697 223.116 100.685 222.929 100.608 222.838 C 100.551 222.768 100.51 222.549 100.508 222.301 C 100.506 221.927 100.455 221.786 100.015 220.93 C 99.544 220.017 99.527 219.967 99.611 219.735 C 99.689 219.52 99.678 219.447 99.507 219.055 C 99.337 218.663 99.261 218.577 98.805 218.27 C 97.922 217.673 97.212 217.066 96.03 215.895 C 94.711 214.586 93.615 213.147 92.599 211.389 C 92.246 210.779 92.219 210.754 91.908 210.751 C 91.674 210.75 91.392 210.546 91.393 210.378 C 91.393 210.329 91.107 209.698 90.757 208.976 C 89.848 207.103 89.77 206.704 90.049 205.339 C 90.213 204.53 90.244 204.457 90.588 204.077 C 90.954 203.673 90.897 203.559 90.298 203.5 C 89.499 203.421 89.507 203.426 89.342 202.913 C 89.26 202.661 89.194 202.376 89.194 202.278 C 89.194 201.956 89.559 200.938 90.061 199.859 C 90.334 199.274 90.683 198.475 90.838 198.085 C 91.387 196.697 92.147 195.586 92.759 195.273 C 93.004 195.149 93.479 195.055 94.897 194.851 C 95.685 194.739 95.74 194.681 95.853 193.864 C 95.919 193.388 95.912 193.314 95.788 193.112 C 95.699 192.967 95.65 192.762 95.65 192.526 C 95.65 192.195 95.669 192.155 95.863 192.054 C 96.051 191.958 96.076 191.908 96.076 191.63 C 96.076 190.967 96.209 190.598 96.582 190.236 C 96.67 190.15 96.756 190.061 96.84 189.971 L 91.969 189.971 C 90.313 189.971 88.971 191.312 88.971 192.967 L 88.971 223.522 C 88.971 225.177 90.313 226.519 91.969 226.519 L 100.882 226.519 C 100.852 226.453 100.789 226.345 100.716 226.239 C 100.514 225.944 100.515 226.048 100.662 223.683 Z" fill="#0e499d"/>
  <path d="M 101.071 189.971 L 98.491 189.971 C 98.517 190.001 98.553 190.033 98.597 190.062 C 98.916 190.272 99.4 190.776 99.477 190.978 C 99.594 191.284 99.567 191.69 99.403 192.129 C 99.309 192.382 99.27 192.606 99.297 192.739 C 99.347 192.99 99.099 193.522 98.808 193.793 C 98.703 193.89 98.554 194.092 98.477 194.243 C 98.4 194.394 98.208 194.655 98.052 194.825 C 97.895 194.994 97.778 195.189 97.79 195.254 C 97.804 195.321 97.99 195.469 98.204 195.585 C 98.42 195.7 98.741 195.927 98.92 196.088 C 99.097 196.25 99.456 196.533 99.718 196.718 C 100.657 197.382 101.108 198.517 101.112 200.231 C 101.115 200.99 101.485 202.771 101.751 203.296 C 102.114 204.016 102.245 204.413 102.359 205.131 C 102.506 206.054 102.51 206.064 102.803 206.187 C 103.084 206.304 103.81 206.894 103.81 207.005 C 103.81 207.043 103.882 207.175 103.97 207.298 L 104.068 207.436 L 104.068 192.967 C 104.068 191.312 102.726 189.971 101.071 189.971 Z M 104.023 210.035 C 104.023 210.07 103.864 210.273 103.672 210.484 C 102.326 211.958 100.022 211.63 99.176 209.844 C 98.972 209.412 98.95 209.303 98.95 208.693 C 98.95 208.109 98.976 207.964 99.14 207.613 C 99.402 207.052 99.904 206.538 100.453 206.268 C 100.702 206.146 100.921 206.022 100.94 205.993 C 100.958 205.964 100.731 205.456 100.439 204.863 C 99.764 203.498 99.683 203.254 99.377 201.625 C 99.238 200.887 99.11 200.245 99.092 200.196 C 99.036 200.039 98.838 200.1 98.348 200.426 L 97.867 200.745 L 97.433 201.846 C 97.194 202.451 96.998 203.037 96.998 203.147 C 96.998 203.27 97.068 203.411 97.183 203.519 C 97.467 203.784 97.543 203.979 98.025 205.66 C 98.38 206.899 98.459 207.261 98.402 207.386 C 98.348 207.505 98.383 207.766 98.547 208.454 C 98.786 209.469 98.876 210.006 98.988 211.105 C 99.102 212.22 99.221 212.574 99.868 213.694 C 100.297 214.44 100.429 214.888 100.731 216.633 C 100.87 217.433 101.009 218.138 101.042 218.198 C 101.074 218.259 101.215 218.478 101.355 218.685 C 101.738 219.255 101.796 219.517 101.658 220.065 C 101.595 220.316 101.524 220.693 101.5 220.903 C 101.451 221.325 101.604 222.347 101.777 222.761 C 101.835 222.901 101.867 223.077 101.848 223.152 C 101.828 223.228 101.91 223.602 102.03 223.985 C 102.404 225.183 102.387 225.691 101.956 226.235 C 101.879 226.333 101.837 226.389 101.812 226.426 C 103.109 226.095 104.068 224.92 104.068 223.522 L 104.068 209.975 C 104.042 209.985 104.023 210.008 104.023 210.035 Z" fill="#d30529"/>
  <path d="M 90.039 219.774 L 91.25 219.774 L 91.948 222.864 L 91.96 222.864 L 91.96 219.774 L 92.974 219.774 L 92.974 224.787 L 91.785 224.787 L 91.063 221.69 L 91.052 221.69 L 91.052 224.787 L 90.039 224.787 L 90.039 219.774 Z M 93.498 219.774 L 95.135 219.774 C 95.909 219.774 96.27 220.273 96.27 221.024 C 96.27 221.557 96.078 222.035 95.618 222.146 L 95.618 222.16 C 96.166 222.224 96.386 222.786 96.386 223.305 C 96.386 224.176 96.037 224.787 95.135 224.787 L 93.498 224.787 L 93.498 219.774 Z M 94.581 221.739 L 94.844 221.739 C 95.064 221.739 95.187 221.501 95.187 221.235 C 95.187 220.953 95.064 220.715 94.844 220.715 L 94.581 220.715 L 94.581 221.739 Z M 94.581 223.846 L 94.884 223.846 C 95.081 223.846 95.268 223.636 95.268 223.228 C 95.268 222.843 95.081 222.624 94.884 222.624 L 94.581 222.624 L 94.581 223.846 Z M 97.464 219.774 L 98.827 219.774 L 99.84 224.787 L 98.687 224.787 L 98.578 223.91 L 97.716 223.91 L 97.604 224.787 L 96.451 224.787 L 97.464 219.774 Z M 98.152 220.799 L 98.14 220.799 L 97.843 222.926 L 98.449 222.926 L 98.152 220.799 Z" fill="#fff"/>
  <path fill="#fab88b" d="M 122.425 169.134 C 124.761 173.181 123.469 178.35 119.504 180.82 L 119.253 180.967 L 119 181.111 C 116.452 182.469 113.398 182.469 110.851 181.111 C 104.965 177.972 104.684 169.64 110.345 166.114 C 110.426 166.063 110.507 166.014 110.59 165.966 L 110.844 165.822 C 113.391 164.465 116.447 164.465 118.994 165.822 C 120.429 166.58 121.618 167.728 122.425 169.134 Z"/>
  <path fill="#f9a66e" d="M 122.503 176.822 L 122.252 176.969 L 122 177.112 C 119.451 178.469 116.397 178.469 113.85 177.112 C 110.925 175.562 109.141 172.479 109.258 169.172 C 109.288 168.261 109.463 167.361 109.777 166.506 C 104.436 170.5 105.422 178.779 111.551 181.407 C 113.953 182.436 116.689 182.326 119 181.111 L 119.253 180.967 L 119.504 180.82 C 121.143 179.801 122.395 178.26 123.055 176.446 C 122.875 176.575 122.693 176.701 122.503 176.822 Z"/>
  <ellipse cx="40.81" cy="14.54" fill="#fcd4b9" rx="0.999" ry="1.667" transform="matrix(0.591028, -0.806651, 0.806651, 0.591028, 82.008156, 191.971176)"/>
  <ellipse cx="48.87" cy="20.45" fill="#fcd4b9" rx="0.266" ry="0.444" transform="matrix(0.591028, -0.806651, 0.806651, 0.591028, 66.393013, 193.863297)"/>
  <path fill="#202c35" d="M 123.919 173.407 C 123.908 170.234 122.215 167.305 119.471 165.712 L 119.137 165.539 C 117.841 164.847 116.393 164.479 114.922 164.47 L 114.922 165.136 C 116.159 165.138 117.38 165.415 118.497 165.946 C 117.499 167.278 115.628 168.789 113.377 170.124 L 111.044 166.092 C 112.03 165.572 113.11 165.255 114.223 165.163 L 114.169 164.497 C 112.95 164.598 111.764 164.949 110.687 165.528 C 110.601 165.574 110.516 165.622 110.425 165.676 C 110.253 165.773 110.09 165.876 109.928 165.982 C 107.506 167.58 106.015 170.257 105.926 173.157 L 105.926 173.523 C 105.935 176.698 107.629 179.628 110.374 181.221 L 110.707 181.394 C 113.351 182.803 116.524 182.803 119.17 181.394 C 119.257 181.35 119.34 181.3 119.453 181.234 L 119.695 181.093 C 122.24 179.511 123.827 176.76 123.926 173.764 L 123.919 173.407 Z M 123.187 174.442 C 123.187 174.528 123.165 174.617 123.152 174.703 L 123.112 174.939 L 123.062 175.197 C 123.046 175.272 123.03 175.349 123.008 175.425 C 122.989 175.503 122.965 175.596 122.942 175.683 C 122.918 175.769 122.902 175.832 122.878 175.906 C 122.855 175.979 122.827 176.075 122.796 176.159 C 122.765 176.242 122.745 176.302 122.719 176.375 C 122.693 176.449 122.655 176.543 122.623 176.626 C 122.589 176.709 122.565 176.763 122.536 176.832 C 122.506 176.901 122.459 176.994 122.423 177.079 L 122.323 177.279 C 122.283 177.358 122.24 177.439 122.193 177.519 C 122.158 177.581 122.122 177.645 122.083 177.711 C 122.043 177.778 121.989 177.864 121.939 177.941 C 121.888 178.019 121.863 178.067 121.82 178.128 C 121.777 178.188 121.716 178.278 121.664 178.352 L 121.532 178.528 L 121.356 178.748 L 121.219 178.915 L 121.03 179.124 C 120.98 179.175 120.933 179.229 120.883 179.28 L 120.677 179.481 L 120.526 179.628 L 120.297 179.824 C 120.247 179.867 120.196 179.91 120.142 179.95 C 120.091 179.992 119.966 180.09 119.876 180.157 L 119.743 180.258 C 119.62 180.345 119.493 180.427 119.367 180.507 L 117.049 176.465 C 119.331 175.182 121.582 174.327 123.223 174.132 C 123.22 174.156 123.22 174.178 123.223 174.199 C 123.21 174.28 123.199 174.363 123.192 174.442 L 123.187 174.442 Z M 123.253 173.466 C 121.516 173.663 119.124 174.556 116.717 175.906 L 115.385 173.596 L 122.302 169.599 C 122.929 170.79 123.255 172.119 123.253 173.466 Z M 119.09 166.263 C 120.258 166.932 121.243 167.879 121.959 169.019 L 115.045 173.016 L 113.713 170.707 C 116.082 169.294 118.054 167.669 119.09 166.263 Z M 106.628 172.723 C 106.628 172.637 106.628 172.554 106.655 172.469 C 106.682 172.386 106.675 172.289 106.688 172.203 C 106.702 172.116 106.718 172.037 106.731 171.954 C 106.745 171.87 106.765 171.777 106.781 171.694 L 106.843 171.447 C 106.862 171.36 106.886 171.278 106.909 171.191 L 106.977 170.95 C 107.005 170.867 107.031 170.784 107.062 170.7 C 107.091 170.617 107.118 170.543 107.149 170.468 C 107.179 170.391 107.211 170.304 107.246 170.225 L 107.344 169.995 C 107.38 169.915 107.419 169.838 107.458 169.761 C 107.498 169.685 107.532 169.611 107.571 169.537 C 107.611 169.465 107.654 169.384 107.697 169.312 L 107.825 169.095 C 107.872 169.02 107.919 168.948 107.967 168.879 C 108.018 168.808 108.057 168.738 108.104 168.671 C 108.151 168.605 108.208 168.529 108.261 168.459 L 108.41 168.264 C 108.468 168.195 108.524 168.126 108.585 168.059 C 108.644 167.991 108.687 167.935 108.745 167.876 C 108.801 167.814 108.867 167.742 108.931 167.678 L 109.101 167.505 C 109.168 167.439 109.238 167.379 109.306 167.316 L 109.481 167.156 L 109.713 166.968 C 109.774 166.922 109.827 166.875 109.888 166.832 C 109.947 166.788 110.068 166.698 110.16 166.636 C 110.253 166.572 110.26 166.562 110.314 166.529 C 110.367 166.495 110.421 166.463 110.473 166.428 L 112.806 170.453 C 110.515 171.737 108.257 172.594 106.621 172.8 C 106.624 172.774 106.624 172.75 106.628 172.723 Z M 106.592 173.466 C 108.327 173.271 110.72 172.378 113.126 171.028 L 114.458 173.337 L 107.541 177.335 C 106.915 176.141 106.588 174.815 106.592 173.466 Z M 107.877 177.909 L 114.791 173.909 L 116.125 176.219 C 114.8 176.987 113.553 177.88 112.395 178.884 L 112.84 179.381 C 113.967 178.409 115.18 177.545 116.469 176.799 L 118.8 180.831 C 118.666 180.9 118.53 180.967 118.395 181.03 L 118.22 181.104 L 117.931 181.227 L 117.727 181.296 L 117.457 181.394 L 117.254 181.464 L 116.995 181.536 L 116.768 181.587 L 116.509 181.644 L 116.282 181.68 L 116.019 181.723 L 115.792 181.746 L 115.526 181.77 L 115.299 181.77 L 115.033 181.77 L 114.809 181.77 C 114.719 181.77 114.626 181.77 114.536 181.77 L 114.316 181.77 L 114.043 181.743 L 113.827 181.716 C 113.733 181.716 113.639 181.691 113.549 181.677 L 113.337 181.637 C 113.243 181.62 113.15 181.601 113.06 181.577 L 112.852 181.527 L 112.556 181.464 L 112.356 181.403 L 112.081 181.307 L 111.883 181.234 L 111.607 181.116 L 111.42 181.034 L 111.35 181 C 111.609 180.665 111.891 180.346 112.194 180.047 L 111.721 179.578 C 111.371 179.923 111.049 180.294 110.754 180.687 C 109.586 180.011 108.599 179.059 107.884 177.915 L 107.877 177.909 Z"/>
  <path fill="#fab88b" d="M 140.086 168.791 C 142.422 172.838 141.13 178.007 137.165 180.477 L 136.914 180.624 L 136.661 180.768 C 134.113 182.126 131.059 182.126 128.512 180.768 C 122.626 177.629 122.345 169.297 128.006 165.771 C 128.087 165.72 128.168 165.671 128.251 165.623 L 128.505 165.479 C 131.052 164.122 134.108 164.122 136.655 165.479 C 138.09 166.237 139.279 167.385 140.086 168.791 Z"/>
  <path fill="#f9a66e" d="M 140.164 176.479 L 139.913 176.626 L 139.661 176.769 C 137.112 178.126 134.058 178.126 131.511 176.769 C 128.586 175.219 126.802 172.136 126.919 168.829 C 126.949 167.918 127.124 167.018 127.438 166.163 C 122.097 170.157 123.083 178.436 129.212 181.064 C 131.614 182.093 134.35 181.983 136.661 180.768 L 136.914 180.624 L 137.165 180.477 C 138.804 179.458 140.056 177.917 140.716 176.103 C 140.536 176.232 140.354 176.358 140.164 176.479 Z"/>
  <ellipse cx="40.81" cy="14.54" fill="#fcd4b9" rx="0.999" ry="1.667" transform="matrix(0.591028, -0.806651, 0.806651, 0.591028, 99.669533, 191.629105)"/>
  <ellipse cx="48.87" cy="20.45" fill="#fcd4b9" rx="0.266" ry="0.444" transform="matrix(0.591028, -0.806651, 0.806651, 0.591028, 84.05439, 193.521225)"/>
  <path fill="#202c35" d="M 141.58 173.064 C 141.569 169.891 139.876 166.962 137.132 165.369 L 136.798 165.196 C 135.502 164.504 134.054 164.136 132.583 164.127 L 132.583 164.793 C 133.82 164.795 135.041 165.072 136.158 165.603 C 135.16 166.935 133.289 168.446 131.038 169.781 L 128.705 165.749 C 129.691 165.229 130.771 164.912 131.884 164.82 L 131.83 164.154 C 130.611 164.255 129.425 164.606 128.348 165.185 C 128.262 165.231 128.177 165.279 128.086 165.333 C 127.914 165.43 127.751 165.533 127.589 165.639 C 125.167 167.237 123.676 169.914 123.587 172.814 L 123.587 173.18 C 123.596 176.355 125.29 179.285 128.035 180.878 L 128.368 181.051 C 131.012 182.46 134.185 182.46 136.831 181.051 C 136.918 181.007 137.001 180.957 137.114 180.891 L 137.356 180.75 C 139.901 179.168 141.488 176.417 141.587 173.421 L 141.58 173.064 Z M 140.848 174.099 C 140.848 174.185 140.826 174.274 140.813 174.36 L 140.773 174.596 L 140.723 174.854 C 140.707 174.929 140.691 175.006 140.669 175.082 C 140.65 175.16 140.626 175.253 140.603 175.34 C 140.579 175.426 140.563 175.489 140.539 175.563 C 140.516 175.636 140.488 175.732 140.457 175.816 C 140.426 175.899 140.406 175.959 140.38 176.032 C 140.354 176.106 140.316 176.2 140.284 176.283 C 140.25 176.366 140.226 176.42 140.197 176.489 C 140.167 176.558 140.12 176.651 140.084 176.736 L 139.984 176.936 C 139.944 177.015 139.901 177.096 139.854 177.176 C 139.819 177.238 139.783 177.302 139.744 177.368 C 139.704 177.435 139.65 177.521 139.6 177.598 C 139.549 177.676 139.524 177.724 139.481 177.785 C 139.438 177.845 139.377 177.935 139.325 178.009 L 139.193 178.185 L 139.017 178.405 L 138.88 178.572 L 138.691 178.781 C 138.641 178.832 138.594 178.886 138.544 178.937 L 138.338 179.138 L 138.187 179.285 L 137.958 179.481 C 137.908 179.524 137.857 179.567 137.803 179.607 C 137.752 179.649 137.627 179.747 137.537 179.814 L 137.404 179.915 C 137.281 180.002 137.154 180.084 137.028 180.164 L 134.71 176.122 C 136.992 174.839 139.243 173.984 140.884 173.789 C 140.881 173.813 140.881 173.835 140.884 173.856 C 140.871 173.937 140.86 174.02 140.853 174.099 L 140.848 174.099 Z M 140.914 173.123 C 139.177 173.32 136.785 174.213 134.378 175.563 L 133.046 173.253 L 139.963 169.256 C 140.59 170.447 140.916 171.776 140.914 173.123 Z M 136.751 165.92 C 137.919 166.589 138.904 167.536 139.62 168.676 L 132.706 172.673 L 131.374 170.364 C 133.743 168.951 135.715 167.326 136.751 165.92 Z M 124.289 172.38 C 124.289 172.294 124.289 172.211 124.316 172.126 C 124.343 172.043 124.336 171.946 124.349 171.86 C 124.363 171.773 124.379 171.694 124.392 171.611 C 124.406 171.527 124.426 171.434 124.442 171.351 L 124.504 171.104 C 124.523 171.017 124.547 170.935 124.57 170.848 L 124.638 170.607 C 124.666 170.524 124.692 170.441 124.723 170.357 C 124.752 170.274 124.779 170.2 124.81 170.125 C 124.84 170.048 124.872 169.961 124.907 169.882 L 125.005 169.652 C 125.041 169.572 125.08 169.495 125.119 169.418 C 125.159 169.342 125.193 169.268 125.232 169.194 C 125.272 169.122 125.315 169.041 125.358 168.969 L 125.486 168.752 C 125.533 168.677 125.58 168.605 125.628 168.536 C 125.679 168.465 125.718 168.395 125.765 168.328 C 125.812 168.262 125.869 168.186 125.922 168.116 L 126.071 167.921 C 126.129 167.852 126.185 167.783 126.246 167.716 C 126.305 167.648 126.348 167.592 126.406 167.533 C 126.462 167.471 126.528 167.399 126.592 167.335 L 126.762 167.162 C 126.829 167.096 126.899 167.036 126.967 166.973 L 127.142 166.813 L 127.374 166.625 C 127.435 166.579 127.488 166.532 127.549 166.489 C 127.608 166.445 127.729 166.355 127.821 166.293 C 127.914 166.229 127.921 166.219 127.975 166.186 C 128.028 166.152 128.082 166.12 128.134 166.085 L 130.467 170.11 C 128.176 171.394 125.918 172.251 124.282 172.457 C 124.285 172.431 124.285 172.407 124.289 172.38 Z M 124.253 173.123 C 125.988 172.928 128.381 172.035 130.787 170.685 L 132.119 172.994 L 125.202 176.992 C 124.576 175.798 124.249 174.472 124.253 173.123 Z M 125.538 177.566 L 132.452 173.566 L 133.786 175.876 C 132.461 176.644 131.214 177.537 130.056 178.541 L 130.501 179.038 C 131.628 178.066 132.841 177.202 134.13 176.456 L 136.461 180.488 C 136.327 180.557 136.191 180.624 136.056 180.687 L 135.881 180.761 L 135.592 180.884 L 135.388 180.953 L 135.118 181.051 L 134.915 181.121 L 134.656 181.193 L 134.429 181.244 L 134.17 181.301 L 133.943 181.337 L 133.68 181.38 L 133.453 181.403 L 133.187 181.427 L 132.96 181.427 L 132.694 181.427 L 132.47 181.427 C 132.38 181.427 132.287 181.427 132.197 181.427 L 131.977 181.427 L 131.704 181.4 L 131.488 181.373 C 131.394 181.373 131.3 181.348 131.21 181.334 L 130.998 181.294 C 130.904 181.277 130.811 181.258 130.721 181.234 L 130.513 181.184 L 130.217 181.121 L 130.017 181.06 L 129.742 180.964 L 129.544 180.891 L 129.268 180.773 L 129.081 180.691 L 129.011 180.657 C 129.27 180.322 129.552 180.003 129.855 179.704 L 129.382 179.235 C 129.032 179.58 128.71 179.951 128.415 180.344 C 127.247 179.668 126.26 178.716 125.545 177.572 L 125.538 177.566 Z"/>
  <path fill="#fab88b" d="M 155.438 176.988 C 157.774 181.035 156.482 186.204 152.517 188.674 L 152.266 188.821 L 152.013 188.965 C 149.465 190.323 146.411 190.323 143.864 188.965 C 137.978 185.826 137.697 177.494 143.358 173.968 C 143.439 173.917 143.52 173.868 143.603 173.82 L 143.857 173.676 C 146.404 172.319 149.46 172.319 152.007 173.676 C 153.442 174.434 154.631 175.582 155.438 176.988 Z"/>
  <path fill="#f9a66e" d="M 155.516 184.676 L 155.265 184.823 L 155.013 184.966 C 152.464 186.323 149.41 186.323 146.863 184.966 C 143.938 183.416 142.154 180.333 142.271 177.026 C 142.301 176.115 142.476 175.215 142.79 174.36 C 137.449 178.354 138.435 186.633 144.564 189.261 C 146.966 190.29 149.702 190.18 152.013 188.965 L 152.266 188.821 L 152.517 188.674 C 154.156 187.655 155.408 186.114 156.068 184.3 C 155.888 184.429 155.706 184.555 155.516 184.676 Z"/>
  <ellipse cx="40.81" cy="14.54" fill="#fcd4b9" rx="0.999" ry="1.667" transform="matrix(0.591028, -0.806651, 0.806651, 0.591028, 115.021507, 199.826706)"/>
  <ellipse cx="48.87" cy="20.45" fill="#fcd4b9" rx="0.266" ry="0.444" transform="matrix(0.591028, -0.806651, 0.806651, 0.591028, 99.406364, 201.718826)"/>
  <path fill="#202c35" d="M 156.932 181.261 C 156.921 178.088 155.228 175.159 152.484 173.566 L 152.15 173.393 C 150.854 172.701 149.406 172.333 147.935 172.324 L 147.935 172.99 C 149.172 172.992 150.393 173.269 151.51 173.8 C 150.512 175.132 148.641 176.643 146.39 177.978 L 144.057 173.946 C 145.043 173.426 146.123 173.109 147.236 173.017 L 147.182 172.351 C 145.963 172.452 144.777 172.803 143.7 173.382 C 143.614 173.428 143.529 173.476 143.438 173.53 C 143.266 173.627 143.103 173.73 142.941 173.836 C 140.519 175.434 139.028 178.111 138.939 181.011 L 138.939 181.377 C 138.948 184.552 140.642 187.482 143.387 189.075 L 143.72 189.248 C 146.364 190.657 149.537 190.657 152.183 189.248 C 152.27 189.204 152.353 189.154 152.466 189.088 L 152.708 188.947 C 155.253 187.365 156.84 184.614 156.939 181.618 L 156.932 181.261 Z M 156.2 182.296 C 156.2 182.382 156.178 182.471 156.165 182.557 L 156.125 182.793 L 156.075 183.051 C 156.059 183.126 156.043 183.203 156.021 183.279 C 156.002 183.357 155.978 183.45 155.955 183.537 C 155.931 183.623 155.915 183.686 155.891 183.76 C 155.868 183.833 155.84 183.929 155.809 184.013 C 155.778 184.096 155.758 184.156 155.732 184.229 C 155.706 184.303 155.668 184.397 155.636 184.48 C 155.602 184.563 155.578 184.617 155.549 184.686 C 155.519 184.755 155.472 184.848 155.436 184.933 L 155.336 185.133 C 155.296 185.212 155.253 185.293 155.206 185.373 C 155.171 185.435 155.135 185.499 155.096 185.565 C 155.056 185.632 155.002 185.718 154.952 185.795 C 154.901 185.873 154.876 185.921 154.833 185.982 C 154.79 186.042 154.729 186.132 154.677 186.206 L 154.545 186.382 L 154.369 186.602 L 154.232 186.769 L 154.043 186.978 C 153.993 187.029 153.946 187.083 153.896 187.134 L 153.69 187.335 L 153.539 187.482 L 153.31 187.678 C 153.26 187.721 153.209 187.764 153.155 187.804 C 153.104 187.846 152.979 187.944 152.889 188.011 L 152.756 188.112 C 152.633 188.199 152.506 188.281 152.38 188.361 L 150.062 184.319 C 152.344 183.036 154.595 182.181 156.236 181.986 C 156.233 182.01 156.233 182.032 156.236 182.053 C 156.223 182.134 156.212 182.217 156.205 182.296 L 156.2 182.296 Z M 156.266 181.32 C 154.529 181.517 152.137 182.41 149.73 183.76 L 148.398 181.45 L 155.315 177.453 C 155.942 178.644 156.268 179.973 156.266 181.32 Z M 152.103 174.117 C 153.271 174.786 154.256 175.733 154.972 176.873 L 148.058 180.87 L 146.726 178.561 C 149.095 177.148 151.067 175.523 152.103 174.117 Z M 139.641 180.577 C 139.641 180.491 139.641 180.408 139.668 180.323 C 139.695 180.24 139.688 180.143 139.701 180.057 C 139.715 179.97 139.731 179.891 139.744 179.808 C 139.758 179.724 139.778 179.631 139.794 179.548 L 139.856 179.301 C 139.875 179.214 139.899 179.132 139.922 179.045 L 139.99 178.804 C 140.018 178.721 140.044 178.638 140.075 178.554 C 140.104 178.471 140.131 178.397 140.162 178.322 C 140.192 178.245 140.224 178.158 140.259 178.079 L 140.357 177.849 C 140.393 177.769 140.432 177.692 140.471 177.615 C 140.511 177.539 140.545 177.465 140.584 177.391 C 140.624 177.319 140.667 177.238 140.71 177.166 L 140.838 176.949 C 140.885 176.874 140.932 176.802 140.98 176.733 C 141.031 176.662 141.07 176.592 141.117 176.525 C 141.164 176.459 141.221 176.383 141.274 176.313 L 141.423 176.118 C 141.481 176.049 141.537 175.98 141.598 175.913 C 141.657 175.845 141.7 175.789 141.758 175.73 C 141.814 175.668 141.88 175.596 141.944 175.532 L 142.114 175.359 C 142.181 175.293 142.251 175.233 142.319 175.17 L 142.494 175.01 L 142.726 174.822 C 142.787 174.776 142.84 174.729 142.901 174.686 C 142.96 174.642 143.081 174.552 143.173 174.49 C 143.266 174.426 143.273 174.416 143.327 174.383 C 143.38 174.349 143.434 174.317 143.486 174.282 L 145.819 178.307 C 143.528 179.591 141.27 180.448 139.634 180.654 C 139.637 180.628 139.637 180.604 139.641 180.577 Z M 139.605 181.32 C 141.34 181.125 143.733 180.232 146.139 178.882 L 147.471 181.191 L 140.554 185.189 C 139.928 183.995 139.601 182.669 139.605 181.32 Z M 140.89 185.763 L 147.804 181.763 L 149.138 184.073 C 147.813 184.841 146.566 185.734 145.408 186.738 L 145.853 187.235 C 146.98 186.263 148.193 185.399 149.482 184.653 L 151.813 188.685 C 151.679 188.754 151.543 188.821 151.408 188.884 L 151.233 188.958 L 150.944 189.081 L 150.74 189.15 L 150.47 189.248 L 150.267 189.318 L 150.008 189.39 L 149.781 189.441 L 149.522 189.498 L 149.295 189.534 L 149.032 189.577 L 148.805 189.6 L 148.539 189.624 L 148.312 189.624 L 148.046 189.624 L 147.822 189.624 C 147.732 189.624 147.639 189.624 147.549 189.624 L 147.329 189.624 L 147.056 189.597 L 146.84 189.57 C 146.746 189.57 146.652 189.545 146.562 189.531 L 146.35 189.491 C 146.256 189.474 146.163 189.455 146.073 189.431 L 145.865 189.381 L 145.569 189.318 L 145.369 189.257 L 145.094 189.161 L 144.896 189.088 L 144.62 188.97 L 144.433 188.888 L 144.363 188.854 C 144.622 188.519 144.904 188.2 145.207 187.901 L 144.734 187.432 C 144.384 187.777 144.062 188.148 143.767 188.541 C 142.599 187.865 141.612 186.913 140.897 185.769 L 140.89 185.763 Z"/>
</svg>