<?xml version="1.0" encoding="utf-8"?>
<svg viewBox="225 228.106 50 43.788" width="50" height="43.788" xmlns="http://www.w3.org/2000/svg">
  <path d="M 260.417 238.523 C 260.417 243.262 254.071 251.708 251.285 255.189 C 250.616 256.023 249.375 256.023 248.715 255.189 C 245.929 251.708 239.583 243.262 239.583 238.523 C 239.583 232.767 244.245 228.106 250 228.106 C 255.755 228.106 260.417 232.767 260.417 238.523 Z M 261.111 245.502 C 261.415 244.903 261.692 244.304 261.945 243.713 C 261.988 243.609 262.031 243.496 262.075 243.392 L 272.144 239.365 C 273.515 238.818 275 239.825 275 241.301 L 275 264.807 C 275 265.658 274.479 266.422 273.689 266.743 L 261.111 271.769 L 261.111 245.502 Z M 236.945 240.111 C 237.153 241.335 237.57 242.568 238.055 243.713 C 238.307 244.304 238.585 244.903 238.889 245.502 L 238.889 267.325 L 227.856 271.743 C 226.484 272.29 225 271.283 225 269.807 L 225 246.301 C 225 245.45 225.521 244.686 226.311 244.365 L 236.953 240.111 L 236.945 240.111 Z M 253.455 256.926 C 254.661 255.415 256.554 252.958 258.333 250.241 L 258.333 271.882 L 241.667 267.116 L 241.667 250.241 C 243.446 252.958 245.338 255.415 246.545 256.926 C 248.325 259.148 251.675 259.148 253.455 256.926 Z M 250 241.301 C 251.918 241.301 253.472 239.746 253.472 237.828 C 253.472 235.91 251.918 234.356 250 234.356 C 248.082 234.356 246.528 235.91 246.528 237.828 C 246.528 239.746 248.082 241.301 250 241.301 Z"/>
</svg>